<svg width="100" height="100" viewBox="0 0 100 100" fill="none" xmlns="http://www.w3.org/2000/svg">
<g clip-path="url(#clip0_126_107)">
<path d="M99.2276 45.3794C99.1912 45.2281 99.1363 45.0844 99.0628 44.9519C99.0628 44.9514 99.0626 44.9509 99.0626 44.9509L85.7976 20.9114C85.7957 20.9077 85.7938 20.9041 85.7918 20.9005L85.7889 20.8954C85.7843 20.887 85.7788 20.8797 85.7742 20.8715C85.7701 20.8647 85.7657 20.858 85.7618 20.8512C85.7478 20.8276 85.7338 20.8034 85.7184 20.78C85.7128 20.7712 85.7073 20.7624 85.7012 20.7539C85.6906 20.7382 85.6788 20.7237 85.6677 20.7087C85.6517 20.6865 85.6355 20.6643 85.6181 20.6428C85.6123 20.6358 85.6068 20.6285 85.6007 20.6215C85.5864 20.6041 85.571 20.588 85.556 20.5715C85.5395 20.5531 85.5234 20.535 85.5062 20.5174C85.5002 20.5114 85.4941 20.5054 85.4879 20.4993C85.4695 20.4812 85.4501 20.464 85.4311 20.4469C85.4154 20.4327 85.4002 20.4182 85.384 20.4046C85.3768 20.3989 85.3698 20.3931 85.3627 20.3872C85.3403 20.3691 85.3171 20.3525 85.2942 20.3356C85.2797 20.3251 85.2662 20.3141 85.2512 20.3039C85.243 20.2981 85.2343 20.2925 85.2256 20.2867C85.2014 20.271 85.1765 20.2566 85.1517 20.2421C85.1454 20.2382 85.1391 20.2341 85.1328 20.2305C85.1247 20.2259 85.1174 20.2203 85.1094 20.216C85.1087 20.2155 85.1077 20.2152 85.107 20.2148C85.0975 20.2097 85.0879 20.2049 85.0784 20.2C85.0569 20.1887 85.0345 20.1785 85.0125 20.1681C84.9833 20.1544 84.954 20.1406 84.9241 20.1283C84.9043 20.1201 84.8837 20.1133 84.8634 20.1061C84.8311 20.0942 84.7989 20.0827 84.7656 20.0727C84.7438 20.0662 84.7217 20.0614 84.6999 20.0558C84.6738 20.0491 84.6482 20.0411 84.6217 20.0358C84.6156 20.0344 84.6093 20.0339 84.6031 20.0329C84.5794 20.0281 84.5552 20.0252 84.5313 20.0218C84.5043 20.0175 84.4772 20.0121 84.4502 20.0095C84.4502 20.0095 84.4485 20.0095 84.4477 20.0092C84.4448 20.0092 84.4419 20.0092 84.439 20.0087C84.4101 20.0061 84.3806 20.0054 84.3511 20.0039C84.3265 20.0029 84.3021 20.0007 84.2777 20.0007L84.2729 20.0005H84.268C84.2632 20.0005 84.2586 20.0005 84.2541 20.0005H51.7306V12.65C54.2926 11.8995 56.1696 9.52957 56.1696 6.72796C56.1696 3.32541 53.4013 0.557129 49.9988 0.557129C46.5962 0.557129 43.828 3.32541 43.828 6.72796C43.828 9.5298 45.7054 11.9 48.2679 12.6505V20.0005H15.741C15.741 20.0005 15.7376 20.0005 15.7359 20.0005H15.7255H15.7231C15.6873 20.0005 15.6516 20.0034 15.6158 20.0055C15.5989 20.0065 15.5818 20.0067 15.5649 20.0082C15.5228 20.0121 15.481 20.0188 15.4395 20.0256C15.4264 20.028 15.4136 20.0292 15.4009 20.0316C15.361 20.0393 15.3216 20.0495 15.282 20.0599C15.267 20.064 15.2515 20.0671 15.2366 20.0715C15.1977 20.083 15.1598 20.0966 15.1221 20.1106C15.1076 20.1161 15.0926 20.1207 15.0784 20.1265C15.0431 20.141 15.009 20.157 14.9748 20.1734C14.9579 20.1816 14.9405 20.1893 14.9238 20.198C14.9129 20.2035 14.902 20.2089 14.8914 20.2146C14.8907 20.2151 14.8897 20.2154 14.889 20.2158C14.881 20.2201 14.8738 20.2257 14.8656 20.2303C14.8559 20.2359 14.8468 20.2419 14.8373 20.2475C14.8168 20.2598 14.796 20.2716 14.7762 20.2847C14.7665 20.291 14.7566 20.2972 14.7472 20.3037C14.7305 20.3151 14.7153 20.3274 14.6994 20.3392C14.6788 20.3545 14.6581 20.369 14.6383 20.3851C14.6303 20.3916 14.6223 20.3979 14.6143 20.4045C14.5969 20.4192 14.5805 20.4346 14.5636 20.4501C14.5462 20.4656 14.5288 20.481 14.5121 20.4975C14.5054 20.504 14.4989 20.5105 14.4921 20.5172C14.474 20.5356 14.4571 20.555 14.4399 20.574C14.4261 20.5892 14.4119 20.6042 14.3989 20.6202C14.3926 20.6274 14.3863 20.6352 14.3803 20.6426C14.3624 20.6648 14.3457 20.6878 14.3293 20.7105C14.3187 20.7247 14.3078 20.7383 14.2979 20.753C14.2916 20.7617 14.2858 20.7709 14.28 20.7799C14.2646 20.8033 14.2506 20.8274 14.2366 20.8511C14.2323 20.8584 14.2279 20.8654 14.2235 20.8726C14.2192 20.8806 14.2139 20.8874 14.2095 20.8954L14.2066 20.9004C14.2047 20.904 14.2028 20.9077 14.2009 20.9113L0.936148 44.9506C0.935925 44.9509 0.935703 44.9514 0.935703 44.9518C0.862259 45.0844 0.807425 45.2281 0.770981 45.3793C0.73837 45.5136 0.720981 45.6494 0.720703 45.7846C0.720703 45.7854 0.720703 45.7861 0.720703 45.7868C0.720703 54.0608 7.45193 60.792 15.7258 60.792C23.9994 60.792 30.7306 54.0608 30.7306 45.7868C30.7306 45.7861 30.7304 45.7854 30.7304 45.7846C30.7304 45.6494 30.713 45.5136 30.6804 45.3793C30.6439 45.2281 30.5888 45.0844 30.5156 44.9518C30.5154 44.9513 30.5154 44.9509 30.5154 44.9509L18.6583 23.4632H48.2679V75.321C48.2679 75.5075 48.2984 75.6867 48.3529 75.8553C41.8964 76.5413 36.7649 81.2179 35.7792 87.2936H24.1479C23.1917 87.2936 22.4165 88.0684 22.4165 89.0249V97.7116C22.4165 98.6676 23.1916 99.4429 24.1479 99.4429H75.8503C76.8066 99.4429 77.5817 98.6676 77.5817 97.7116V89.0249C77.5817 88.0684 76.8066 87.2936 75.8503 87.2936H64.2191C63.2332 81.218 58.1019 76.5417 51.6456 75.8553C51.7001 75.6867 51.7306 75.5075 51.7306 75.321V23.4632H81.3403L69.4834 44.9506C69.4834 44.9506 69.4832 44.9514 69.4829 44.9518C69.4098 45.0844 69.3547 45.2281 69.3182 45.3793C69.2856 45.5136 69.2682 45.6494 69.2682 45.7846C69.2682 45.7854 69.268 45.7861 69.268 45.7868C69.268 54.0608 75.9992 60.792 84.2728 60.792C92.5467 60.792 99.2779 54.0608 99.2779 45.7868C99.2779 45.7861 99.2779 45.7854 99.2779 45.7846C99.2776 45.6494 99.2602 45.5137 99.2276 45.3794ZM15.7255 25.3156L26.0662 44.0555H5.38476L15.7255 25.3156ZM15.7258 57.3294C9.94937 57.3294 5.15048 53.0647 4.31281 47.5182H27.1384C26.3008 53.0647 21.5019 57.3294 15.7258 57.3294ZM47.2906 6.72802C47.2906 5.23485 48.5056 4.01991 49.9988 4.01991C51.492 4.01991 52.7069 5.23485 52.7069 6.72802C52.7069 8.22146 51.492 9.43663 49.9988 9.43663C48.5056 9.43657 47.2906 8.22141 47.2906 6.72802ZM74.119 95.9802H25.8793V90.7563H37.3422H62.6561H74.119V95.9802ZM60.6974 87.2936H39.3008C40.3399 82.6497 44.7193 79.2276 49.999 79.2276C55.2787 79.2276 59.6581 82.6497 60.6974 87.2936ZM94.6138 44.0555H73.9323L84.273 25.3156L94.6138 44.0555ZM84.2728 57.3294C78.4967 57.3294 73.6978 53.0647 72.8601 47.5182H95.6857C94.848 53.0647 90.0492 57.3294 84.2728 57.3294Z" fill="#DBDBCF" stroke="#DBDBCF" stroke-width="0.064"/>
</g>
<defs>
<clipPath id="clip0_126_107">
<rect width="100" height="100" fill="white"/>
</clipPath>
</defs>
</svg>
