<svg width="100" height="100" viewBox="0 0 100 100" fill="none" xmlns="http://www.w3.org/2000/svg">
<path d="M90.625 57.8126C90.625 80.2501 72.4375 98.4376 50 98.4376C27.5625 98.4376 9.375 80.2501 9.375 57.8126C9.375 38.0313 23.5156 21.572 42.2344 17.947C41.2188 16.4501 40.625 14.6438 40.625 12.6938C40.625 7.51572 44.8219 3.31885 50 3.31885C55.175 3.31885 59.375 7.51572 59.375 12.6938C59.375 14.6407 58.7812 16.447 57.7625 17.947C76.4844 21.572 90.625 38.0313 90.625 57.8126ZM50 7.8126C47.4094 7.8126 45.3125 9.9126 45.3125 12.5001C45.3125 15.0876 47.4094 17.1876 50 17.1876C52.5875 17.1876 54.6875 15.0876 54.6875 12.5001C54.6875 9.9126 52.5875 7.8126 50 7.8126ZM53.125 23.5938V31.2501H46.875V23.5938C29.9344 25.122 16.5781 39.3251 15.7063 56.447H25V62.5001H15.95C18.0219 78.3345 30.8469 90.5813 46.875 92.0282V84.3751H53.125V92.0282C69.0844 90.5876 81.8656 78.2407 84.0187 62.5001H75V56.2501H84.3C83.525 39.0376 70.125 25.1282 53.125 23.5938ZM29.7281 78.6313L41.9719 50.9188L69.5031 38.8595L57.4875 66.3407L29.7281 78.6313ZM54.125 54.2313C51.6844 51.7907 47.725 51.7907 45.2844 54.2313C42.8438 56.672 42.8438 60.6282 45.2844 63.0688C47.725 65.5095 51.6844 65.5095 54.125 63.0688C56.5656 60.6282 56.5656 56.6751 54.125 54.2313Z" fill="#DBDBCF"/>
</svg>
