<svg width="25" height="25" viewBox="0 0 25 25" fill="none" xmlns="http://www.w3.org/2000/svg">
<path d="M12.5 16.6667C14.2259 16.6667 15.625 15.2676 15.625 13.5417C15.625 11.8159 14.2259 10.4167 12.5 10.4167C10.7741 10.4167 9.375 11.8159 9.375 13.5417C9.375 15.2676 10.7741 16.6667 12.5 16.6667Z" stroke="#FDDEDC" stroke-width="1.2"/>
<path d="M10.1839 21.875H14.8135C18.0646 21.875 19.6902 21.875 20.8579 21.109C21.3633 20.7773 21.7973 20.3511 22.1352 19.8549C22.9154 18.7084 22.9154 17.1124 22.9154 13.9204C22.9154 10.7285 22.9154 9.13251 22.1352 7.98604C21.7973 7.48973 21.3633 7.06358 20.8579 6.73196C20.1074 6.23972 19.1682 6.06378 17.7299 6.0009C17.0436 6.0009 16.4528 5.49029 16.3182 4.82954C16.1162 3.83843 15.2298 3.125 14.2005 3.125H10.7969C9.7675 3.125 8.88115 3.83843 8.67925 4.82954C8.54466 5.49029 7.95375 6.0009 7.26745 6.0009C5.82925 6.06378 4.8899 6.23972 4.13957 6.73196C3.63406 7.06358 3.20003 7.48973 2.86226 7.98604C2.08203 9.13251 2.08203 10.7285 2.08203 13.9204C2.08203 17.1124 2.08203 18.7084 2.86226 19.8549C3.20003 20.3511 3.63406 20.7773 4.13957 21.109C5.30728 21.875 6.93281 21.875 10.1839 21.875Z" stroke="#FDDEDC" stroke-width="1.2"/>
<path d="M19.7917 10.4167H18.75" stroke="#FDDEDC" stroke-width="1.2" stroke-linecap="round"/>
</svg>
