<svg width="25" height="25" viewBox="0 0 25 25" fill="none" xmlns="http://www.w3.org/2000/svg">
<path d="M22.9154 22.9167H2.08203" stroke="#FDDEDC" stroke-width="1.5" stroke-linecap="round"/>
<path d="M2.08203 11.4583L6.31428 8.0726M22.9154 11.4583L14.4509 4.6868C13.3095 3.77375 11.6879 3.77375 10.5465 4.6868L9.73201 5.33841" stroke="#FDDEDC" stroke-width="1.5" stroke-linecap="round"/>
<path d="M16.1445 5.72917V3.64583C16.1445 3.35819 16.3778 3.125 16.6654 3.125H19.2695C19.5571 3.125 19.7904 3.35819 19.7904 3.64583V8.85417" stroke="#FDDEDC" stroke-width="1.5" stroke-linecap="round"/>
<path d="M4.16406 22.9166V9.89575" stroke="#FDDEDC" stroke-width="1.5" stroke-linecap="round"/>
<path d="M20.832 9.89584V14.0625M20.832 22.9167V18.2292" stroke="#FDDEDC" stroke-width="1.5" stroke-linecap="round"/>
<path d="M15.625 22.9166V17.7083C15.625 16.2351 15.625 15.4986 15.1674 15.0409C14.7097 14.5833 13.9731 14.5833 12.5 14.5833C11.0269 14.5833 10.2903 14.5833 9.83265 15.0409M9.375 22.9166V17.7083" stroke="#FDDEDC" stroke-width="1.5" stroke-linecap="round" stroke-linejoin="round"/>
<path d="M14.5807 9.89583C14.5807 11.0465 13.648 11.9792 12.4974 11.9792C11.3468 11.9792 10.4141 11.0465 10.4141 9.89583C10.4141 8.74524 11.3468 7.8125 12.4974 7.8125C13.648 7.8125 14.5807 8.74524 14.5807 9.89583Z" stroke="#FDDEDC" stroke-width="1.5"/>
</svg>
