<svg width="25" height="25" viewBox="0 0 25 25" fill="none" xmlns="http://www.w3.org/2000/svg">
<path d="M19.5312 5.23437C16.875 5.23437 14.375 4.14062 12.5 2.34375C10.625 4.14062 8.125 5.23437 5.46875 5.23437C4.375 5.23437 3.35937 5 2.34375 4.6875C2.34375 15.625 6.64062 20 12.5 22.6562C18.3594 20 22.6562 15.625 22.6562 4.6875C21.6406 5 20.625 5.23437 19.5312 5.23437Z" stroke="#FDDEDC" stroke-width="1.5" stroke-miterlimit="10" stroke-linecap="round" stroke-linejoin="round"/>
<path d="M14.8438 17.1875H10.1562C9.29687 17.1875 8.59375 16.4844 8.59375 15.625V12.5C8.59375 11.6406 9.29687 10.9375 10.1562 10.9375H14.8438C15.7031 10.9375 16.4062 11.6406 16.4062 12.5V15.625C16.4062 16.4844 15.7031 17.1875 14.8438 17.1875Z" stroke="#FDDEDC" stroke-width="1.5" stroke-miterlimit="10" stroke-linecap="round" stroke-linejoin="round"/>
<path d="M15.625 10.9375H9.375V9.375C9.375 7.65625 10.7812 6.25 12.5 6.25C14.2188 6.25 15.625 7.65625 15.625 9.375V10.9375Z" stroke="#FDDEDC" stroke-width="1.5" stroke-miterlimit="10" stroke-linecap="round" stroke-linejoin="round"/>
<path d="M12.5 13.2812V14.8438" stroke="#FDDEDC" stroke-width="1.5" stroke-miterlimit="10" stroke-linecap="round" stroke-linejoin="round"/>
</svg>
