<svg width="100" height="100" viewBox="0 0 100 100" fill="none" xmlns="http://www.w3.org/2000/svg">
<path d="M12.5 45.8333L50 33.3333L87.5 45.8333" stroke="#DBDBCF" stroke-width="4"/>
<path d="M50 8.33325V89.5832" stroke="#DBDBCF" stroke-width="4"/>
<path d="M13.3035 58.3333C16.8761 76.2433 31.5684 85.4703 41.244 89.697C44.25 91.0099 45.7529 91.6666 50 91.6666C54.2471 91.6666 55.75 91.0099 58.7558 89.697C61.165 88.6445 63.885 87.2824 66.6667 85.5533M79.1667 74.6003C84.0133 68.4516 87.5 60.4012 87.5 49.9641C87.5 47.5974 87.5 45.4149 87.5 43.4028C87.5 30.0794 87.5 23.4178 85.9271 21.1766C84.3542 18.9355 78.0904 16.7914 65.5629 12.5032L63.1762 11.6863C56.6458 9.45092 53.3808 8.33325 50 8.33325C46.6192 8.33325 43.3542 9.45092 36.8238 11.6863L34.4371 12.5032C21.9097 16.7914 15.646 18.9355 14.073 21.1766C12.5 23.4178 12.5 30.0794 12.5 43.4028V45.8333" stroke="#DBDBCF" stroke-width="4" stroke-linecap="round"/>
</svg>
