<svg width="100" height="100" viewBox="0 0 100 100" fill="none" xmlns="http://www.w3.org/2000/svg">
<g clip-path="url(#clip0_126_90)">
<path d="M90.7232 14.5313C90.3757 14.1106 89.8288 13.9075 89.2921 13.9964L81.8195 15.2397L80.8251 4.06649C80.78 3.56024 80.4865 3.10907 80.0415 2.86298C79.5966 2.61708 79.0585 2.60809 78.6056 2.83856L68.574 7.95106L65.4154 0.904774C65.1953 0.413368 64.7328 0.0739148 64.198 0.0106335C63.6634 -0.0536243 63.1345 0.170009 62.8062 0.596766C47.2906 20.7405 52.641 30.7179 57.2294 34.88C57.2355 34.8856 57.241 34.8925 57.2472 34.8981C57.9929 35.5727 58.7234 36.0938 59.3488 36.4847C53.88 45.0458 51.0386 54.7081 49.565 62.3618C48.7062 58.8024 47.5714 55.7003 46.5011 53.236C44.8454 49.4249 43.1329 46.5872 42.104 45.0239C43.8503 43.7923 47.0328 40.9208 47.9279 35.8962C49.2538 28.4516 45.0675 19.4925 35.4855 9.26805C35.1126 8.87001 34.5554 8.70126 34.0238 8.82333C33.4923 8.94638 33.0662 9.34286 32.9056 9.86454L30.6771 17.1046L20.2378 12.9993C19.7642 12.8132 19.2296 12.8741 18.8109 13.1622C18.3917 13.4501 18.1431 13.9272 18.147 14.4356L18.2355 25.6944L10.5208 25.3698C9.98158 25.3432 9.4722 25.6089 9.17689 26.0591C8.88138 26.5093 8.84408 27.0817 9.07885 27.5663C17.4267 44.8038 25.9064 48.872 32.0513 48.872C34.0497 48.872 35.8011 48.4405 37.2204 47.8927C37.2392 47.8862 37.2583 47.8807 37.2769 47.8737C38.179 47.5218 38.9488 47.1184 39.5665 46.7454C41.2443 49.3126 44.9691 55.6813 46.8208 64.0786C45.8253 62.9655 44.5798 61.8427 43.0259 60.8216C42.3193 60.3575 41.3704 60.5538 40.9062 61.2604C40.4421 61.9669 40.6384 62.9159 41.3451 63.3802C43.4949 64.7927 44.9376 66.4431 45.889 67.8835L34.4402 62.3005C33.68 61.9296 32.764 62.2458 32.3937 63.0054C32.0234 63.7651 32.3386 64.6815 33.0986 65.0518L45.7685 71.2304C41.9021 73.1052 38.4673 73.4251 35.53 72.1741C30.2369 69.9194 27.5945 63.1391 26.6081 59.9091C29.982 59.8175 33.0435 60.146 35.731 60.8901C36.5472 61.1149 37.389 60.6378 37.6144 59.8231C37.8398 59.0085 37.3624 58.1651 36.5474 57.9397C33.0371 56.9679 28.9941 56.6343 24.5316 56.947C24.091 56.9778 23.6851 57.1977 23.4183 57.5499C23.1515 57.9024 23.0501 58.3526 23.14 58.785C23.2462 59.2972 25.8413 71.3659 34.3193 74.9864C35.8919 75.6581 37.5494 75.9934 39.2859 75.9934C41.9775 75.9933 44.8593 75.1856 47.9079 73.5786C47.9138 74.5821 47.8853 75.6005 47.8158 76.6327L47.8765 76.6368C47.8046 78.212 47.7863 79.4919 47.7872 80.4065H34.955C34.1095 80.4065 33.4244 81.0917 33.4244 81.9372V88.1638V94.5442C33.4244 97.5528 35.872 100 38.8806 100H59.806C62.8146 100 65.2622 97.5528 65.2622 94.5442V88.1638V81.9366C65.2622 81.0911 64.5771 80.4059 63.7316 80.4059H50.8519C50.8525 78.5339 50.9365 74.9958 51.4277 70.5349C54.2775 71.9583 56.9785 72.6747 59.5113 72.6747C61.2476 72.6747 62.9056 72.3391 64.4779 71.6677C72.9558 68.0472 75.5509 55.978 75.6572 55.4663C75.7468 55.0339 75.6453 54.5837 75.3789 54.2311C75.1121 53.879 74.7062 53.6591 74.2656 53.6282C63.1777 52.8501 56.8023 56.2372 53.3251 59.4026C54.8982 52.694 57.5519 44.93 62.0238 37.9829C63.3751 38.7015 65.7449 39.6677 68.7206 39.6677C70.8482 39.6677 73.2851 39.1733 75.8785 37.7411C76.6185 37.3323 76.8869 36.4013 76.4783 35.6612C76.0695 34.9214 75.1386 34.6524 74.3984 35.0614C67.9798 38.6065 62.8331 34.929 62.6228 34.7747C62.5087 34.6895 62.3835 34.6206 62.2505 34.57C62.2376 34.5651 60.9855 34.069 59.5734 32.8681C59.5636 32.8397 59.5546 32.8114 59.5453 32.7829C59.5257 32.7243 59.5062 32.6655 59.4886 32.6071C59.4796 32.5778 59.472 32.5485 59.4634 32.5192C59.4451 32.4552 59.4273 32.3911 59.4113 32.3274C59.4054 32.3038 59.4003 32.2806 59.3947 32.2567C59.3781 32.1872 59.3624 32.1175 59.3488 32.0481C59.3453 32.0304 59.3423 32.0126 59.339 31.9948C59.3249 31.92 59.312 31.8452 59.3015 31.7708C59.2997 31.7579 59.298 31.745 59.2964 31.7319C59.2857 31.653 59.2765 31.5739 59.2693 31.4954C59.2685 31.4864 59.2679 31.4776 59.2673 31.4686C59.2603 31.3864 59.2552 31.3046 59.2525 31.2229C59.2523 31.2167 59.2521 31.2102 59.2519 31.2042C59.2492 31.1204 59.2488 31.0366 59.2507 30.9534C59.2507 30.9487 59.2509 30.944 59.2511 30.9391C59.2531 30.8546 59.2574 30.7706 59.264 30.6866C59.2642 30.6823 59.2646 30.678 59.265 30.6737C59.2716 30.5901 59.2806 30.5067 59.2917 30.4237C59.2923 30.4184 59.2931 30.4134 59.2937 30.4081C59.3048 30.3266 59.3183 30.2454 59.3337 30.1641C59.3351 30.1567 59.3365 30.1497 59.3378 30.1425C59.3531 30.0643 59.3704 29.9864 59.3898 29.9087C59.3923 29.8983 59.3949 29.8878 59.3976 29.8776C59.4163 29.8038 59.4372 29.7302 59.4597 29.6565C59.464 29.6423 59.4683 29.628 59.4726 29.6138C59.4941 29.545 59.5177 29.4766 59.5423 29.4081C59.5494 29.3891 59.5558 29.3702 59.563 29.3511C59.5865 29.288 59.6121 29.2249 59.6384 29.162C59.6484 29.1382 59.6578 29.1143 59.6683 29.0905C59.6913 29.0372 59.7165 28.9841 59.7413 28.9307C59.7583 28.8948 59.7747 28.8587 59.7925 28.8229C59.8179 28.772 59.8445 28.721 59.8716 28.6698C59.89 28.6352 59.9081 28.6007 59.9273 28.5659C59.9601 28.5065 59.9947 28.4477 60.0294 28.389C60.0453 28.3626 60.0605 28.3364 60.0765 28.3102C60.1179 28.2429 60.1611 28.1759 60.205 28.1091C60.2158 28.0925 60.2267 28.0761 60.2376 28.0597C60.2898 27.9821 60.3439 27.9048 60.3997 27.828C60.4029 27.8237 60.4058 27.8194 60.4091 27.8151C62.8144 24.5276 68.5107 22.0169 73.512 20.4028C77.2943 19.195 80.4158 18.5839 80.7001 18.5292C80.7027 18.5288 80.7052 18.5282 80.7078 18.5278L87.1466 17.4565C84.7958 23.2518 82.1613 27.8042 79.2994 31.0114C78.7365 31.6423 78.7915 32.6098 79.4222 33.1725C80.0533 33.7356 81.0208 33.6806 81.5833 33.0497C85.0984 29.1106 88.2595 23.387 90.9789 16.0372C91.1683 15.5257 91.0706 14.952 90.7232 14.5313ZM29.8263 20.0599C29.4503 21.5632 28.8599 24.1688 28.4318 27.2028C25.1091 26.5149 22.6892 26.1341 21.2988 25.9403L21.2261 16.6772L29.8263 20.0599ZM12.9927 28.5378L18.3736 28.7643C18.3908 28.7657 18.4079 28.7671 18.4249 28.7679C18.4324 28.7683 18.44 28.7686 18.4478 28.769C19.2408 28.8362 22.8324 29.1794 28.0763 30.2581C27.5468 36.1673 28.14 40.66 29.8412 43.6614C29.8488 43.6749 29.8562 43.6884 29.864 43.7016C29.9226 43.8042 29.9826 43.9048 30.0441 44.0034C30.0605 44.03 30.0765 44.0567 30.0931 44.0829C30.1566 44.1833 30.2216 44.2819 30.2878 44.3786C30.2968 44.3919 30.3054 44.4057 30.3144 44.419C30.316 44.4214 30.3179 44.4235 30.3193 44.4257C30.4031 44.5466 30.4892 44.6638 30.5775 44.7788C30.6015 44.8102 30.6265 44.8407 30.6507 44.8716C30.6888 44.92 30.7261 44.969 30.765 45.0163C30.7826 45.0378 30.8015 45.0573 30.8193 45.0786C30.8917 45.1653 30.9658 45.2495 31.041 45.3323C31.0736 45.3683 31.1058 45.4048 31.139 45.4401C31.2335 45.5411 31.3302 45.6386 31.4286 45.7337C31.441 45.7456 31.4525 45.7587 31.465 45.7704C26.5906 45.4827 19.9531 41.877 12.9927 28.5378ZM39.5693 43.0089C39.4462 43.0708 39.3269 43.1536 39.2247 43.2458C39.214 43.2554 38.2027 44.1589 36.5003 44.8843C36.4708 44.8804 36.4417 44.8757 36.4124 44.8716C36.3509 44.8628 36.2896 44.854 36.2292 44.8436C36.1992 44.8386 36.1699 44.8325 36.14 44.8266C36.074 44.8141 36.0081 44.8015 35.9435 44.7872C35.9206 44.7821 35.8984 44.7765 35.8755 44.771C35.8048 44.7544 35.7347 44.7372 35.6658 44.7181C35.6492 44.7136 35.6329 44.7085 35.6165 44.7038C35.5421 44.6825 35.4683 44.6602 35.3958 44.6362C35.3851 44.6325 35.3742 44.6286 35.3632 44.6251C35.2861 44.5989 35.2097 44.5714 35.1347 44.5419C35.1283 44.5391 35.1214 44.5366 35.115 44.5339C35.0365 44.5026 34.9591 44.4698 34.8829 44.4349C34.8792 44.4333 34.8755 44.4313 34.872 44.4298C34.7937 44.3936 34.7167 44.3558 34.641 44.3157C34.6386 44.3145 34.6365 44.3136 34.6343 44.3122C34.5578 44.2716 34.4824 44.2292 34.4081 44.1845C34.4066 44.1835 34.4046 44.1825 34.4031 44.1813C34.3292 44.1366 34.2564 44.0901 34.1851 44.0415C34.1828 44.0399 34.1806 44.0384 34.1785 44.037C34.1085 43.9891 34.0396 43.9395 33.9722 43.8878C33.9681 43.8847 33.9642 43.8817 33.9601 43.8786C33.8951 43.8286 33.8312 43.7766 33.7683 43.7229C33.7621 43.7177 33.7558 43.7124 33.7496 43.7071C33.69 43.6558 33.6316 43.6024 33.574 43.5477C33.5648 43.5391 33.5556 43.5306 33.5466 43.5218C33.4929 43.4702 33.4406 43.4167 33.3886 43.3622C33.3763 43.3493 33.364 43.3366 33.3517 43.3235C33.3044 43.2727 33.2578 43.22 33.2117 43.1665C33.1962 43.1485 33.1804 43.1307 33.1652 43.1126C33.1263 43.0665 33.0886 43.0186 33.0511 42.9708C33.0279 42.9411 33.0046 42.912 32.9818 42.8819C32.9458 42.8345 32.9107 42.7856 32.8757 42.7364C32.8546 42.7065 32.8335 42.6772 32.8126 42.647C32.7728 42.5888 32.7339 42.5294 32.6954 42.4694C32.6806 42.446 32.6652 42.4227 32.6505 42.3991C32.6074 42.33 32.5654 42.2595 32.5244 42.188C32.5156 42.1727 32.5068 42.1577 32.498 42.1425C32.4511 42.0597 32.4054 41.9753 32.3609 41.8893C32.3591 41.8858 32.3574 41.8827 32.3556 41.8792C30.4896 38.2595 30.7896 32.0432 31.5814 26.8485C32.2048 22.8397 33.0767 19.7272 33.123 19.564L35.0417 13.3309C42.5335 21.8475 45.9447 29.4118 44.9238 35.3048C43.9923 40.6792 39.7433 42.9194 39.5693 43.0089ZM62.2013 94.5436C62.2011 95.8643 61.1267 96.9388 59.806 96.9388H38.881C37.5601 96.9388 36.4859 95.8643 36.4859 94.5436V89.6938H62.2013V94.5436ZM62.2011 83.4667V86.6327H36.4857V83.4667H62.2011ZM55.0048 62.0235C58.8671 58.2591 64.7796 56.3974 72.189 56.5915C71.2023 59.8229 68.5597 66.6016 63.2675 68.8558C60.331 70.1067 56.8955 69.7872 53.0292 67.912L65.6992 61.7335C66.4591 61.3632 66.7747 60.4466 66.404 59.687C66.0337 58.9274 65.1173 58.6116 64.3576 58.9821L52.89 64.5743C53.4238 63.7667 54.1144 62.8911 55.0048 62.0235ZM57.6896 26.3667C57.6818 26.3782 57.6744 26.3895 57.6665 26.4007C57.6001 26.5005 57.5359 26.6005 57.4742 26.7011C57.4585 26.7265 57.4425 26.7515 57.4273 26.7768C57.365 26.88 57.305 26.9833 57.2474 27.0874C57.24 27.1005 57.2322 27.1132 57.2249 27.1265C57.2238 27.1288 57.2226 27.1311 57.2212 27.1335C57.1505 27.2624 57.0841 27.3923 57.0206 27.5225C57.0031 27.5587 56.9869 27.5948 56.9697 27.6309C56.9437 27.686 56.9165 27.7411 56.8919 27.7964C56.8808 27.8216 56.8718 27.847 56.8609 27.8724C56.8152 27.9772 56.7726 28.0823 56.7316 28.1878C56.7146 28.2315 56.6968 28.2751 56.6806 28.319C56.6324 28.4491 56.5884 28.5794 56.5472 28.71C56.5421 28.7266 56.5353 28.7429 56.5302 28.7597C54.6085 24.2704 54.8667 16.7216 63.6871 4.53231L65.8904 9.44755C65.8964 9.46259 65.9031 9.47763 65.9095 9.49286C65.9128 9.50028 65.916 9.50809 65.9197 9.5163C66.2148 10.2585 67.514 13.6274 68.8917 18.7938C63.3673 20.9624 59.6128 23.5022 57.6896 26.3667ZM71.7829 17.7458C70.9126 14.4659 70.1716 12.1311 69.7234 10.8009L77.9769 6.59481L78.796 15.7999C77.2833 16.1356 74.6884 16.7724 71.7829 17.7458Z" fill="#DBDBCF" stroke="#DBDBCF" stroke-width="0.00064"/>
</g>
<defs>
<clipPath id="clip0_126_90">
<rect width="100" height="100" fill="white"/>
</clipPath>
</defs>
</svg>
