<svg width="25" height="25" viewBox="0 0 25 25" fill="none" xmlns="http://www.w3.org/2000/svg">
<mask id="path-1-inside-1_125_206" fill="white">
<path d="M15.3516 10.6641L12.8906 13.125V7.03125C12.8906 6.79687 12.7344 6.64062 12.5 6.64062C12.2656 6.64062 12.1094 6.79687 12.1094 7.03125V14.0625C12.1094 14.1016 12.1094 14.1797 12.1484 14.2188C12.1875 14.2969 12.2656 14.375 12.3438 14.4141C12.3828 14.4531 12.4609 14.4531 12.5 14.4531C12.5391 14.4531 12.6172 14.4531 12.6563 14.4141C12.6953 14.375 12.7344 14.375 12.7734 14.3359L15.8984 11.2109C16.0547 11.0547 16.0547 10.8203 15.8984 10.6641C15.7422 10.5078 15.5078 10.5078 15.3516 10.6641Z"/>
</mask>
<path d="M15.3516 10.6641L14.2909 9.6034V9.6034L15.3516 10.6641ZM12.8906 13.125H11.3906V16.7463L13.9513 14.1857L12.8906 13.125ZM12.1484 14.2188L13.4901 13.5479L13.3812 13.3302L13.2091 13.1581L12.1484 14.2188ZM12.3438 14.4141L13.4044 13.3534L13.2323 13.1813L13.0146 13.0724L12.3438 14.4141ZM12.7734 14.3359L13.8341 15.3966L12.7734 14.3359ZM15.8984 11.2109L14.8378 10.1503L15.8984 11.2109ZM15.3516 10.6641L14.2909 9.6034L11.83 12.0643L12.8906 13.125L13.9513 14.1857L16.4122 11.7247L15.3516 10.6641ZM12.8906 13.125H14.3906V7.03125H12.8906H11.3906V13.125H12.8906ZM12.8906 7.03125H14.3906C14.3906 6.57319 14.2314 6.07491 13.8439 5.68739C13.4563 5.29986 12.9581 5.14062 12.5 5.14062V6.64062V8.14062C12.2763 8.14062 11.9734 8.05952 11.7225 7.80871C11.4717 7.5579 11.3906 7.25493 11.3906 7.03125H12.8906ZM12.5 6.64062V5.14062C12.0419 5.14062 11.5437 5.29986 11.1561 5.68739C10.7686 6.07491 10.6094 6.57319 10.6094 7.03125H12.1094H13.6094C13.6094 7.25493 13.5283 7.5579 13.2775 7.80871C13.0266 8.05952 12.7237 8.14062 12.5 8.14062V6.64062ZM12.1094 7.03125H10.6094V14.0625H12.1094H13.6094V7.03125H12.1094ZM12.1094 14.0625H10.6094C10.6094 14.0734 10.6067 14.2194 10.6347 14.3872C10.6569 14.5206 10.7357 14.9274 11.0878 15.2794L12.1484 14.2188L13.2091 13.1581C13.3752 13.3242 13.4656 13.4966 13.5142 13.6154C13.5628 13.7343 13.5839 13.8343 13.5938 13.894C13.6121 14.0032 13.6094 14.0907 13.6094 14.0625H12.1094ZM12.1484 14.2188L10.8068 14.8896C10.991 15.258 11.3045 15.5715 11.6729 15.7557L12.3438 14.4141L13.0146 13.0724C13.1437 13.137 13.2329 13.2112 13.2921 13.2704C13.3513 13.3296 13.4255 13.4189 13.4901 13.5479L12.1484 14.2188ZM12.3438 14.4141L11.2831 15.4747C11.6352 15.8268 12.0419 15.9056 12.1753 15.9278C12.3431 15.9558 12.4891 15.9531 12.5 15.9531V14.4531V12.9531C12.4718 12.9531 12.5592 12.9504 12.6685 12.9687C12.7282 12.9786 12.8282 12.9997 12.9471 13.0483C13.0659 13.0969 13.2383 13.1873 13.4044 13.3534L12.3438 14.4141ZM12.5 14.4531V15.9531C12.5109 15.9531 12.6569 15.9558 12.8247 15.9278C12.9581 15.9056 13.3648 15.8268 13.7169 15.4747L12.6563 14.4141L11.5956 13.3534C11.7617 13.1873 11.9341 13.0969 12.0529 13.0483C12.1718 12.9997 12.2718 12.9786 12.3315 12.9687C12.4408 12.9504 12.5282 12.9531 12.5 12.9531V14.4531ZM12.6563 14.4141L13.7169 15.4747C13.6344 15.5573 13.5515 15.6185 13.4805 15.6629C13.4475 15.6835 13.4203 15.6985 13.4039 15.7071C13.3898 15.7147 13.3782 15.7204 13.3857 15.7166C13.3879 15.7155 13.4093 15.7049 13.4332 15.6922C13.4593 15.6783 13.4963 15.6579 13.5391 15.6311C13.6296 15.5746 13.732 15.4987 13.8341 15.3966L12.7734 14.3359L11.7128 13.2753C11.7953 13.1927 11.8782 13.1315 11.9491 13.0871C11.9822 13.0665 12.0094 13.0515 12.0258 13.0429C12.0399 13.0353 12.0515 13.0296 12.044 13.0334C12.0417 13.0345 12.0204 13.0451 11.9965 13.0578C11.9703 13.0717 11.9333 13.0921 11.8905 13.1189C11.8001 13.1754 11.6977 13.2513 11.5956 13.3534L12.6563 14.4141ZM12.7734 14.3359L13.8341 15.3966L16.9591 12.2716L15.8984 11.2109L14.8378 10.1503L11.7128 13.2753L12.7734 14.3359ZM15.8984 11.2109L16.9591 12.2716C17.7011 11.5296 17.7011 10.3454 16.9591 9.6034L15.8984 10.6641L14.8378 11.7247C14.6436 11.5305 14.5156 11.2502 14.5156 10.9375C14.5156 10.6248 14.6436 10.3445 14.8378 10.1503L15.8984 11.2109ZM15.8984 10.6641L16.9591 9.6034C16.2171 8.86137 15.0329 8.86137 14.2909 9.6034L15.3516 10.6641L16.4122 11.7247C16.218 11.9189 15.9377 12.0469 15.625 12.0469C15.3123 12.0469 15.032 11.9189 14.8378 11.7247L15.8984 10.6641Z" fill="#FDDEDC" mask="url(#path-1-inside-1_125_206)"/>
<mask id="path-3-inside-2_125_206" fill="white">
<path d="M12.5 19.5312C11.7578 19.5312 11.1328 20.1562 11.1328 20.8984C11.1328 21.6406 11.7578 22.2656 12.5 22.2656C13.2422 22.2656 13.8672 21.6406 13.8672 20.8984C13.8672 20.1562 13.2422 19.5312 12.5 19.5312ZM12.5 21.4844C12.1875 21.4844 11.9141 21.2109 11.9141 20.8984C11.9141 20.5859 12.1875 20.3125 12.5 20.3125C12.8125 20.3125 13.0859 20.5859 13.0859 20.8984C13.0859 21.2109 12.8125 21.4844 12.5 21.4844Z"/>
</mask>
<path d="M12.5 19.5312V18.0312C10.9294 18.0312 9.63281 19.3278 9.63281 20.8984H11.1328H12.6328C12.6328 20.955 12.6092 20.9867 12.5987 20.9972C12.5883 21.0077 12.5565 21.0312 12.5 21.0312V19.5312ZM11.1328 20.8984H9.63281C9.63281 22.4691 10.9294 23.7656 12.5 23.7656V22.2656V20.7656C12.5565 20.7656 12.5883 20.7892 12.5987 20.7997C12.6092 20.8102 12.6328 20.8419 12.6328 20.8984H11.1328ZM12.5 22.2656V23.7656C14.0706 23.7656 15.3672 22.4691 15.3672 20.8984H13.8672H12.3672C12.3672 20.8419 12.3908 20.8102 12.4013 20.7997C12.4117 20.7892 12.4435 20.7656 12.5 20.7656V22.2656ZM13.8672 20.8984H15.3672C15.3672 19.3278 14.0706 18.0312 12.5 18.0312V19.5312V21.0312C12.4435 21.0312 12.4117 21.0077 12.4013 20.9972C12.3908 20.9867 12.3672 20.955 12.3672 20.8984H13.8672ZM12.5 21.4844V19.9844C12.7851 19.9844 13.009 20.1064 13.1505 20.2479C13.292 20.3895 13.4141 20.6133 13.4141 20.8984H11.9141H10.4141C10.4141 22.0394 11.3591 22.9844 12.5 22.9844V21.4844ZM11.9141 20.8984H13.4141C13.4141 21.1836 13.292 21.4074 13.1505 21.5489C13.009 21.6905 12.7851 21.8125 12.5 21.8125V20.3125V18.8125C11.3591 18.8125 10.4141 19.7575 10.4141 20.8984H11.9141ZM12.5 20.3125V21.8125C12.2149 21.8125 11.991 21.6905 11.8495 21.5489C11.708 21.4074 11.5859 21.1836 11.5859 20.8984H13.0859H14.5859C14.5859 19.7575 13.6409 18.8125 12.5 18.8125V20.3125ZM13.0859 20.8984H11.5859C11.5859 20.6133 11.708 20.3895 11.8495 20.2479C11.991 20.1064 12.2149 19.9844 12.5 19.9844V21.4844V22.9844C13.6409 22.9844 14.5859 22.0394 14.5859 20.8984H13.0859Z" fill="#FDDEDC" mask="url(#path-3-inside-2_125_206)"/>
<mask id="path-5-inside-3_125_206" fill="white">
<path d="M5.85938 13.0859C5.11719 13.0859 4.49219 13.7109 4.49219 14.4531C4.49219 15.1953 5.11719 15.8203 5.85938 15.8203C6.60156 15.8203 7.22656 15.1953 7.22656 14.4531C7.22656 13.7109 6.60156 13.0859 5.85938 13.0859ZM5.85938 15.0391C5.54688 15.0391 5.27344 14.7656 5.27344 14.4531C5.27344 14.1406 5.54688 13.8672 5.85938 13.8672C6.17188 13.8672 6.44531 14.1406 6.44531 14.4531C6.44531 14.7656 6.17188 15.0391 5.85938 15.0391Z"/>
</mask>
<path d="M5.85938 13.0859V11.5859C4.28876 11.5859 2.99219 12.8825 2.99219 14.4531H4.49219H5.99219C5.99219 14.5096 5.96861 14.5414 5.95812 14.5519C5.94763 14.5624 5.9159 14.5859 5.85938 14.5859V13.0859ZM4.49219 14.4531H2.99219C2.99219 16.0237 4.28876 17.3203 5.85938 17.3203V15.8203V14.3203C5.9159 14.3203 5.94763 14.3439 5.95812 14.3544C5.96861 14.3649 5.99219 14.3966 5.99219 14.4531H4.49219ZM5.85938 15.8203V17.3203C7.42999 17.3203 8.72656 16.0237 8.72656 14.4531H7.22656H5.72656C5.72656 14.3966 5.75014 14.3649 5.76063 14.3544C5.77112 14.3439 5.80285 14.3203 5.85938 14.3203V15.8203ZM7.22656 14.4531H8.72656C8.72656 12.8825 7.42999 11.5859 5.85938 11.5859V13.0859V14.5859C5.80285 14.5859 5.77112 14.5624 5.76063 14.5519C5.75014 14.5414 5.72656 14.5096 5.72656 14.4531H7.22656ZM5.85938 15.0391V13.5391C6.1445 13.5391 6.36836 13.6611 6.50988 13.8026C6.6514 13.9441 6.77344 14.168 6.77344 14.4531H5.27344H3.77344C3.77344 15.5941 4.71845 16.5391 5.85938 16.5391V15.0391ZM5.27344 14.4531H6.77344C6.77344 14.7382 6.6514 14.9621 6.50988 15.1036C6.36836 15.2451 6.1445 15.3672 5.85938 15.3672V13.8672V12.3672C4.71845 12.3672 3.77344 13.3122 3.77344 14.4531H5.27344ZM5.85938 13.8672V15.3672C5.57425 15.3672 5.35039 15.2451 5.20887 15.1036C5.06735 14.9621 4.94531 14.7382 4.94531 14.4531H6.44531H7.94531C7.94531 13.3122 7.0003 12.3672 5.85938 12.3672V13.8672ZM6.44531 14.4531H4.94531C4.94531 14.168 5.06735 13.9441 5.20887 13.8026C5.35039 13.6611 5.57425 13.5391 5.85938 13.5391V15.0391V16.5391C7.0003 16.5391 7.94531 15.5941 7.94531 14.4531H6.44531Z" fill="#FDDEDC" mask="url(#path-5-inside-3_125_206)"/>
<mask id="path-7-inside-4_125_206" fill="white">
<path d="M17.7734 14.4531C17.7734 15.1953 18.3984 15.8203 19.1406 15.8203C19.8828 15.8203 20.5078 15.1953 20.5078 14.4531C20.5078 13.7109 19.8828 13.0859 19.1406 13.0859C18.3984 13.0859 17.7734 13.7109 17.7734 14.4531ZM19.1406 13.8672C19.4531 13.8672 19.7266 14.1406 19.7266 14.4531C19.7266 14.7656 19.4531 15.0391 19.1406 15.0391C18.8281 15.0391 18.5547 14.7656 18.5547 14.4531C18.5547 14.1406 18.8281 13.8672 19.1406 13.8672Z"/>
</mask>
<path d="M17.7734 14.4531H16.2734C16.2734 16.0237 17.57 17.3203 19.1406 17.3203V15.8203V14.3203C19.1971 14.3203 19.2289 14.3439 19.2394 14.3544C19.2499 14.3649 19.2734 14.3966 19.2734 14.4531H17.7734ZM19.1406 15.8203V17.3203C20.7112 17.3203 22.0078 16.0237 22.0078 14.4531H20.5078H19.0078C19.0078 14.3966 19.0314 14.3649 19.0419 14.3544C19.0524 14.3439 19.0841 14.3203 19.1406 14.3203V15.8203ZM20.5078 14.4531H22.0078C22.0078 12.8825 20.7112 11.5859 19.1406 11.5859V13.0859V14.5859C19.0841 14.5859 19.0524 14.5624 19.0419 14.5519C19.0314 14.5414 19.0078 14.5096 19.0078 14.4531H20.5078ZM19.1406 13.0859V11.5859C17.57 11.5859 16.2734 12.8825 16.2734 14.4531H17.7734H19.2734C19.2734 14.5096 19.2499 14.5414 19.2394 14.5519C19.2289 14.5624 19.1971 14.5859 19.1406 14.5859V13.0859ZM19.1406 13.8672V15.3672C18.8555 15.3672 18.6316 15.2451 18.4901 15.1036C18.3486 14.9621 18.2266 14.7382 18.2266 14.4531H19.7266H21.2266C21.2266 13.3122 20.2816 12.3672 19.1406 12.3672V13.8672ZM19.7266 14.4531H18.2266C18.2266 14.168 18.3486 13.9441 18.4901 13.8026C18.6316 13.6611 18.8555 13.5391 19.1406 13.5391V15.0391V16.5391C20.2816 16.5391 21.2266 15.5941 21.2266 14.4531H19.7266ZM19.1406 15.0391V13.5391C19.4257 13.5391 19.6496 13.6611 19.7911 13.8026C19.9326 13.9441 20.0547 14.168 20.0547 14.4531H18.5547H17.0547C17.0547 15.5941 17.9997 16.5391 19.1406 16.5391V15.0391ZM18.5547 14.4531H20.0547C20.0547 14.7382 19.9326 14.9621 19.7911 15.1036C19.6496 15.2451 19.4257 15.3672 19.1406 15.3672V13.8672V12.3672C17.9997 12.3672 17.0547 13.3122 17.0547 14.4531H18.5547Z" fill="#FDDEDC" mask="url(#path-7-inside-4_125_206)"/>
<mask id="path-9-inside-5_125_206" fill="white">
<path d="M23.7905 5.54688C23.6342 4.64844 23.1264 3.32031 21.642 2.26563C20.5874 1.5625 19.4545 1.17188 18.2827 1.17188C17.0327 1.17188 15.8217 1.64062 15.3139 2.34375C15.2358 2.42188 15.2358 2.53906 15.2358 2.65625C15.2358 2.77344 15.3139 2.85156 15.392 2.92969L18.7124 5.27344L18.3217 5.78125C16.7592 4.6875 14.9233 4.02344 12.892 3.94531V2.34375H14.0639C14.5327 2.34375 14.8452 2.03125 14.8452 1.5625V1.17188C14.8452 0.703125 14.5327 0.390625 14.0639 0.390625H10.9389C10.4702 0.390625 10.1577 0.703125 10.1577 1.17188V1.5625C10.1577 2.03125 10.4702 2.34375 10.9389 2.34375H12.1108V3.90625C10.1186 3.98438 8.2436 4.64844 6.6811 5.74219L6.17329 5.07812L9.22016 2.89062C9.37641 2.73438 9.41548 2.5 9.29829 2.30469C8.82954 1.64062 7.65766 1.17188 6.44673 1.17188C5.35298 1.17188 4.25923 1.52344 3.28266 2.22656C0.782663 4.02344 0.899851 6.79688 1.64204 7.85156C1.72016 7.92969 1.79829 8.00781 1.91548 8.00781C1.95454 8.00781 1.95454 8.00781 1.9936 8.00781C2.07173 8.00781 2.14985 7.96875 2.22798 7.92969L5.58735 5.50781L6.13423 6.17188C3.79048 8.08594 2.34516 10.8984 2.34516 14.0625C2.34516 17.5391 4.10298 20.6641 6.79829 22.4609L5.50923 24.375C5.39204 24.5703 5.4311 24.8047 5.62641 24.9219C5.70454 24.9609 5.78266 25 5.86079 25C5.97798 25 6.09516 24.9219 6.17329 24.8438L7.46235 22.8906C8.94673 23.75 10.6655 24.2188 12.5014 24.2188C14.2592 24.2188 15.8999 23.7891 17.3452 22.9688L18.8295 24.8438C18.9077 24.9219 19.0249 25 19.142 25C19.2202 25 19.2983 24.9609 19.3764 24.9219C19.5327 24.8047 19.5717 24.5312 19.4545 24.375L18.0092 22.5781C20.8217 20.7812 22.6577 17.6172 22.6577 14.0625C22.6577 10.8984 21.2124 8.08594 18.9467 6.21094L19.3764 5.70312L22.8139 8.125C22.892 8.16406 22.9702 8.20312 23.0483 8.20312C23.1655 8.20312 23.2827 8.16406 23.3608 8.04688C23.7514 7.46094 23.9467 6.48438 23.7905 5.54688ZM10.9389 1.17188H14.0639V1.5625H10.9389V1.17188ZM2.11079 7.03125C1.79829 6.13281 1.87641 4.21875 3.75141 2.85156C4.8061 2.10938 5.82173 1.95312 6.44673 1.95312C7.26704 1.95312 7.97016 2.1875 8.36079 2.5L2.11079 7.03125ZM21.8764 14.0625C21.8764 19.2188 17.6577 23.4375 12.5014 23.4375C10.7827 23.4375 9.1811 22.9688 7.81391 22.1484C7.77485 22.0703 7.73579 21.9922 7.65766 21.9141C7.54048 21.875 7.42329 21.875 7.34516 21.875C4.8061 20.1953 3.12641 17.3438 3.12641 14.0625C3.12641 11.0547 4.53266 8.39844 6.75923 6.67969C6.79829 6.67969 6.87641 6.64062 6.91548 6.60156C6.95454 6.5625 6.9936 6.52344 6.9936 6.48438C8.5561 5.35156 10.4702 4.6875 12.5014 4.6875C14.5717 4.6875 16.4467 5.35156 18.0092 6.48438C18.0483 6.52344 18.0483 6.5625 18.1264 6.60156C18.1655 6.64062 18.2436 6.67969 18.2827 6.67969C20.4702 8.39844 21.8764 11.0547 21.8764 14.0625ZM22.892 7.22656L16.2514 2.53906C16.6811 2.22656 17.4233 1.95312 18.3217 1.95312C19.0249 1.95312 20.0795 2.10938 21.1733 2.89062C22.4624 3.78906 22.892 4.88281 23.0092 5.66406C23.0874 6.28906 23.0483 6.83594 22.892 7.22656Z"/>
</mask>
<path d="M23.7905 5.54688L25.2701 5.30027L25.2683 5.28986L23.7905 5.54688ZM21.642 2.26563L22.5108 1.04285L22.4927 1.02993L22.4741 1.01755L21.642 2.26563ZM15.3139 2.34375L16.3746 3.40441L16.4596 3.31942L16.5299 3.22199L15.3139 2.34375ZM15.392 2.92969L14.3314 3.99035L14.4221 4.08111L14.527 4.15514L15.392 2.92969ZM18.7124 5.27344L19.9013 6.188L20.8542 4.94925L19.5774 4.04799L18.7124 5.27344ZM18.3217 5.78125L17.4615 7.0101L18.6363 7.83245L19.5107 6.69582L18.3217 5.78125ZM12.892 3.94531H11.392V5.38873L12.8344 5.4442L12.892 3.94531ZM12.892 2.34375V0.84375H11.392V2.34375H12.892ZM12.1108 2.34375H13.6108V0.84375H12.1108V2.34375ZM12.1108 3.90625L12.1696 5.4051L13.6108 5.34858V3.90625H12.1108ZM6.6811 5.74219L5.48956 6.65336L6.36315 7.79574L7.54129 6.97104L6.6811 5.74219ZM6.17329 5.07812L5.29848 3.85964L4.04266 4.76125L4.98175 5.9893L6.17329 5.07812ZM9.22016 2.89062L10.095 4.10911L10.1943 4.03778L10.2808 3.95129L9.22016 2.89062ZM9.29829 2.30469L10.5845 1.53294L10.5559 1.48517L10.5237 1.43966L9.29829 2.30469ZM3.28266 2.22656L4.15812 3.44459L4.15912 3.44386L3.28266 2.22656ZM1.64204 7.85156L0.415329 8.7148L0.489834 8.82068L0.581378 8.91222L1.64204 7.85156ZM2.22798 7.92969L2.8988 9.27133L3.00702 9.21721L3.10518 9.14645L2.22798 7.92969ZM5.58735 5.50781L6.74525 4.55425L5.8511 3.4685L4.71015 4.29105L5.58735 5.50781ZM6.13423 6.17188L7.08303 7.33367L8.2496 6.38097L7.29212 5.21831L6.13423 6.17188ZM6.79829 22.4609L8.04244 23.2988L8.88429 22.0488L7.63034 21.2129L6.79829 22.4609ZM5.50923 24.375L4.26507 23.5371L4.24316 23.5696L4.22299 23.6033L5.50923 24.375ZM5.62641 24.9219L4.85467 26.2081L4.90407 26.2378L4.95559 26.2635L5.62641 24.9219ZM6.17329 24.8438L7.23395 25.9044L7.34145 25.7969L7.4252 25.67L6.17329 24.8438ZM7.46235 22.8906L8.21391 21.5925L6.98966 20.8837L6.21044 22.0644L7.46235 22.8906ZM17.3452 22.9688L18.5212 22.0377L17.7231 21.0295L16.6048 21.6642L17.3452 22.9688ZM18.8295 24.8438L17.6535 25.7748L17.7074 25.843L17.7689 25.9044L18.8295 24.8438ZM19.3764 24.9219L20.0472 26.2635L20.1682 26.203L20.2764 26.1219L19.3764 24.9219ZM19.4545 24.375L20.6545 23.475L20.6393 23.4547L20.6234 23.4349L19.4545 24.375ZM18.0092 22.5781L17.2016 21.3141L15.7919 22.2147L16.8404 23.5183L18.0092 22.5781ZM18.9467 6.21094L17.8016 5.24202L16.8221 6.39968L17.9904 7.36653L18.9467 6.21094ZM19.3764 5.70312L20.2403 4.4769L19.1181 3.68622L18.2313 4.73421L19.3764 5.70312ZM22.8139 8.125L21.95 9.35122L22.0422 9.41619L22.1431 9.46664L22.8139 8.125ZM23.3608 8.04688L22.1127 7.21482L23.3608 8.04688ZM10.9389 1.17188V-0.328125H9.43891V1.17188H10.9389ZM14.0639 1.17188H15.5639V-0.328125H14.0639V1.17188ZM14.0639 1.5625V3.0625H15.5639V1.5625H14.0639ZM10.9389 1.5625H9.43891V3.0625H10.9389V1.5625ZM2.11079 7.03125L0.694043 7.52403L1.35713 9.4304L2.99124 8.24567L2.11079 7.03125ZM3.75141 2.85156L2.88817 1.62485L2.87785 1.63212L2.86766 1.63955L3.75141 2.85156ZM8.36079 2.5L9.24124 3.71442L10.8353 2.5587L9.29783 1.3287L8.36079 2.5ZM7.81391 22.1484L6.47227 22.8193L6.66762 23.2099L7.04217 23.4347L7.81391 22.1484ZM7.65766 21.9141L8.71832 20.8534L8.46794 20.603L8.13201 20.491L7.65766 21.9141ZM7.34516 21.875L6.51756 23.126L6.89391 23.375H7.34516V21.875ZM6.75923 6.67969V5.17969H6.24762L5.84265 5.4923L6.75923 6.67969ZM6.9936 6.48438L6.11315 5.26996L5.4936 5.71913V6.48438H6.9936ZM18.0092 6.48438L19.0699 5.42372L18.9859 5.3397L18.8897 5.26996L18.0092 6.48438ZM18.1264 6.60156L19.1871 5.5409L19.015 5.36878L18.7972 5.25992L18.1264 6.60156ZM18.2827 6.67969L19.2094 5.50021L18.8015 5.17969H18.2827V6.67969ZM22.892 7.22656L22.027 8.45201L23.5792 9.54764L24.2848 7.78365L22.892 7.22656ZM16.2514 2.53906L15.3692 1.32596L13.6761 2.55726L15.3864 3.76451L16.2514 2.53906ZM21.1733 2.89062L20.3014 4.11123L20.3085 4.11626L20.3156 4.12122L21.1733 2.89062ZM23.0092 5.66406L24.4976 5.47801L24.4954 5.45975L24.4926 5.44155L23.0092 5.66406ZM23.7905 5.54688L25.2683 5.28986C25.0598 4.09076 24.3844 2.37406 22.5108 1.04285L21.642 2.26563L20.7732 3.4884C21.8684 4.26657 22.2087 5.20612 22.3127 5.80389L23.7905 5.54688ZM21.642 2.26563L22.4741 1.01755C21.2185 0.180502 19.801 -0.328125 18.2827 -0.328125V1.17188V2.67188C19.1081 2.67188 19.9562 2.9445 20.81 3.5137L21.642 2.26563ZM18.2827 1.17188V-0.328125C17.4789 -0.328125 16.677 -0.178904 15.9719 0.0978549C15.2869 0.366748 14.5759 0.803607 14.0979 1.46551L15.3139 2.34375L16.5299 3.22199C16.5597 3.18077 16.7082 3.03169 17.068 2.89043C17.4079 2.75703 17.8364 2.67188 18.2827 2.67188V1.17188ZM15.3139 2.34375L14.2533 1.28309C13.9301 1.60629 13.8138 1.97493 13.7697 2.21702C13.7313 2.42827 13.7358 2.62783 13.7358 2.65625H15.2358H16.7358C16.7358 2.56749 16.7402 2.64985 16.7214 2.75368C16.6969 2.88835 16.6196 3.15934 16.3746 3.40441L15.3139 2.34375ZM15.2358 2.65625H13.7358C13.7358 3.07997 13.8859 3.41378 14.0365 3.63967C14.1629 3.82918 14.3138 3.97279 14.3314 3.99035L15.392 2.92969L16.4527 1.86903C16.3921 1.80846 16.4649 1.87394 16.5327 1.97556C16.6247 2.11357 16.7358 2.34972 16.7358 2.65625H15.2358ZM15.392 2.92969L14.527 4.15514L17.8473 6.49889L18.7124 5.27344L19.5774 4.04799L16.2571 1.70424L15.392 2.92969ZM18.7124 5.27344L17.5234 4.35887L17.1328 4.86668L18.3217 5.78125L19.5107 6.69582L19.9013 6.188L18.7124 5.27344ZM18.3217 5.78125L19.1819 4.5524C17.3952 3.30167 15.2829 2.53616 12.9497 2.44642L12.892 3.94531L12.8344 5.4442C14.5637 5.51072 16.1233 6.07333 17.4615 7.0101L18.3217 5.78125ZM12.892 3.94531H14.392V2.34375H12.892H11.392V3.94531H12.892ZM12.892 2.34375V3.84375H14.0639V2.34375V0.84375H12.892V2.34375ZM14.0639 2.34375V3.84375C14.6392 3.84375 15.2351 3.64545 15.691 3.18957C16.1469 2.73368 16.3452 2.13775 16.3452 1.5625H14.8452H13.3452C13.3452 1.456 13.3872 1.2507 13.5697 1.06825C13.7521 0.885796 13.9574 0.84375 14.0639 0.84375V2.34375ZM14.8452 1.5625H16.3452V1.17188H14.8452H13.3452V1.5625H14.8452ZM14.8452 1.17188H16.3452C16.3452 0.596628 16.1469 0.000696212 15.691 -0.455191C15.2351 -0.911079 14.6392 -1.10938 14.0639 -1.10938V0.390625V1.89062C13.9574 1.89062 13.7521 1.84858 13.5697 1.66613C13.3872 1.48368 13.3452 1.27837 13.3452 1.17188H14.8452ZM14.0639 0.390625V-1.10938H10.9389V0.390625V1.89062H14.0639V0.390625ZM10.9389 0.390625V-1.10938C10.3637 -1.10938 9.76773 -0.911079 9.31185 -0.455191C8.85596 0.000696212 8.65766 0.596628 8.65766 1.17188H10.1577H11.6577C11.6577 1.27837 11.6156 1.48368 11.4332 1.66613C11.2507 1.84858 11.0454 1.89062 10.9389 1.89062V0.390625ZM10.1577 1.17188H8.65766V1.5625H10.1577H11.6577V1.17188H10.1577ZM10.1577 1.5625H8.65766C8.65766 2.13775 8.85596 2.73368 9.31185 3.18957C9.76773 3.64545 10.3637 3.84375 10.9389 3.84375V2.34375V0.84375C11.0454 0.84375 11.2507 0.885796 11.4332 1.06825C11.6156 1.2507 11.6577 1.456 11.6577 1.5625H10.1577ZM10.9389 2.34375V3.84375H12.1108V2.34375V0.84375H10.9389V2.34375ZM12.1108 2.34375H10.6108V3.90625H12.1108H13.6108V2.34375H12.1108ZM12.1108 3.90625L12.052 2.4074C9.76242 2.49719 7.61088 3.26036 5.82091 4.51334L6.6811 5.74219L7.54129 6.97104C8.87633 6.03651 10.4748 5.47156 12.1696 5.4051L12.1108 3.90625ZM6.6811 5.74219L7.87264 4.83101L7.36482 4.16695L6.17329 5.07812L4.98175 5.9893L5.48956 6.65336L6.6811 5.74219ZM6.17329 5.07812L7.0481 6.29661L10.095 4.10911L9.22016 2.89062L8.34535 1.67214L5.29848 3.85964L6.17329 5.07812ZM9.22016 2.89062L10.2808 3.95129C10.8885 3.34358 11.0809 2.36017 10.5845 1.53294L9.29829 2.30469L8.01205 3.07643C7.75009 2.63983 7.8643 2.12517 8.1595 1.82996L9.22016 2.89062ZM9.29829 2.30469L10.5237 1.43966C10.0635 0.787664 9.36629 0.358612 8.70558 0.0956116C8.02114 -0.176834 7.23673 -0.328125 6.44673 -0.328125V1.17188V2.67188C6.86766 2.67188 7.27465 2.75496 7.59607 2.8829C7.75472 2.94605 7.87596 3.01354 7.96069 3.07331C8.0476 3.1346 8.07488 3.17262 8.07284 3.16971L9.29829 2.30469ZM6.44673 1.17188V-0.328125C5.02389 -0.328125 3.62601 0.131001 2.40621 1.00926L3.28266 2.22656L4.15912 3.44386C4.89244 2.91587 5.68206 2.67188 6.44673 2.67188V1.17188ZM3.28266 2.22656L2.40721 1.00854C0.828754 2.14305 0.0276121 3.63288 -0.229384 5.04966C-0.473659 6.3963 -0.23866 7.78545 0.415329 8.7148L1.64204 7.85156L2.86875 6.98832C2.78055 6.86299 2.58586 6.33807 2.72245 5.58511C2.84631 4.90227 3.23657 4.10695 4.15812 3.44459L3.28266 2.22656ZM1.64204 7.85156L0.581378 8.91222C0.598934 8.92978 0.742544 9.08072 0.932059 9.20706C1.15795 9.35766 1.49176 9.50781 1.91548 9.50781V8.00781V6.50781C2.222 6.50781 2.45815 6.61891 2.59616 6.71091C2.69778 6.77866 2.76327 6.85147 2.7027 6.7909L1.64204 7.85156ZM1.91548 8.00781V9.50781C1.91555 9.50781 1.91563 9.50781 1.9157 9.50781C1.91578 9.50781 1.91586 9.50781 1.91593 9.50781C1.91601 9.50781 1.91608 9.50781 1.91616 9.50781C1.91623 9.50781 1.91631 9.50781 1.91638 9.50781C1.91646 9.50781 1.91653 9.50781 1.91661 9.50781C1.91668 9.50781 1.91676 9.50781 1.91683 9.50781C1.91691 9.50781 1.91698 9.50781 1.91706 9.50781C1.91713 9.50781 1.9172 9.50781 1.91728 9.50781C1.91735 9.50781 1.91743 9.50781 1.9175 9.50781C1.91757 9.50781 1.91765 9.50781 1.91772 9.50781C1.91779 9.50781 1.91787 9.50781 1.91794 9.50781C1.91801 9.50781 1.91809 9.50781 1.91816 9.50781C1.91823 9.50781 1.9183 9.50781 1.91838 9.50781C1.91845 9.50781 1.91852 9.50781 1.91859 9.50781C1.91867 9.50781 1.91874 9.50781 1.91881 9.50781C1.91888 9.50781 1.91895 9.50781 1.91903 9.50781C1.9191 9.50781 1.91917 9.50781 1.91924 9.50781C1.91931 9.50781 1.91938 9.50781 1.91945 9.50781C1.91953 9.50781 1.9196 9.50781 1.91967 9.50781C1.91974 9.50781 1.91981 9.50781 1.91988 9.50781C1.91995 9.50781 1.92002 9.50781 1.92009 9.50781C1.92016 9.50781 1.92023 9.50781 1.9203 9.50781C1.92037 9.50781 1.92044 9.50781 1.92051 9.50781C1.92058 9.50781 1.92065 9.50781 1.92072 9.50781C1.92079 9.50781 1.92086 9.50781 1.92093 9.50781C1.921 9.50781 1.92107 9.50781 1.92113 9.50781C1.9212 9.50781 1.92127 9.50781 1.92134 9.50781C1.92141 9.50781 1.92148 9.50781 1.92155 9.50781C1.92162 9.50781 1.92168 9.50781 1.92175 9.50781C1.92182 9.50781 1.92189 9.50781 1.92196 9.50781C1.92202 9.50781 1.92209 9.50781 1.92216 9.50781C1.92223 9.50781 1.92229 9.50781 1.92236 9.50781C1.92243 9.50781 1.9225 9.50781 1.92256 9.50781C1.92263 9.50781 1.9227 9.50781 1.92276 9.50781C1.92283 9.50781 1.9229 9.50781 1.92296 9.50781C1.92303 9.50781 1.9231 9.50781 1.92316 9.50781C1.92323 9.50781 1.9233 9.50781 1.92336 9.50781C1.92343 9.50781 1.92349 9.50781 1.92356 9.50781C1.92363 9.50781 1.92369 9.50781 1.92376 9.50781C1.92382 9.50781 1.92389 9.50781 1.92395 9.50781C1.92402 9.50781 1.92408 9.50781 1.92415 9.50781C1.92421 9.50781 1.92428 9.50781 1.92434 9.50781C1.92441 9.50781 1.92447 9.50781 1.92454 9.50781C1.9246 9.50781 1.92467 9.50781 1.92473 9.50781C1.9248 9.50781 1.92486 9.50781 1.92492 9.50781C1.92499 9.50781 1.92505 9.50781 1.92512 9.50781C1.92518 9.50781 1.92524 9.50781 1.92531 9.50781C1.92537 9.50781 1.92543 9.50781 1.9255 9.50781C1.92556 9.50781 1.92562 9.50781 1.92569 9.50781C1.92575 9.50781 1.92581 9.50781 1.92588 9.50781C1.92594 9.50781 1.926 9.50781 1.92606 9.50781C1.92613 9.50781 1.92619 9.50781 1.92625 9.50781C1.92631 9.50781 1.92638 9.50781 1.92644 9.50781C1.9265 9.50781 1.92656 9.50781 1.92662 9.50781C1.92669 9.50781 1.92675 9.50781 1.92681 9.50781C1.92687 9.50781 1.92693 9.50781 1.92699 9.50781C1.92706 9.50781 1.92712 9.50781 1.92718 9.50781C1.92724 9.50781 1.9273 9.50781 1.92736 9.50781C1.92742 9.50781 1.92748 9.50781 1.92754 9.50781C1.9276 9.50781 1.92766 9.50781 1.92773 9.50781C1.92779 9.50781 1.92785 9.50781 1.92791 9.50781C1.92797 9.50781 1.92803 9.50781 1.92809 9.50781C1.92815 9.50781 1.92821 9.50781 1.92827 9.50781C1.92833 9.50781 1.92839 9.50781 1.92845 9.50781C1.92851 9.50781 1.92856 9.50781 1.92862 9.50781C1.92868 9.50781 1.92874 9.50781 1.9288 9.50781C1.92886 9.50781 1.92892 9.50781 1.92898 9.50781C1.92904 9.50781 1.9291 9.50781 1.92916 9.50781C1.92921 9.50781 1.92927 9.50781 1.92933 9.50781C1.92939 9.50781 1.92945 9.50781 1.92951 9.50781C1.92957 9.50781 1.92962 9.50781 1.92968 9.50781C1.92974 9.50781 1.9298 9.50781 1.92986 9.50781C1.92991 9.50781 1.92997 9.50781 1.93003 9.50781C1.93009 9.50781 1.93014 9.50781 1.9302 9.50781C1.93026 9.50781 1.93032 9.50781 1.93037 9.50781C1.93043 9.50781 1.93049 9.50781 1.93054 9.50781C1.9306 9.50781 1.93066 9.50781 1.93072 9.50781C1.93077 9.50781 1.93083 9.50781 1.93089 9.50781C1.93094 9.50781 1.931 9.50781 1.93105 9.50781C1.93111 9.50781 1.93117 9.50781 1.93122 9.50781C1.93128 9.50781 1.93134 9.50781 1.93139 9.50781C1.93145 9.50781 1.9315 9.50781 1.93156 9.50781C1.93161 9.50781 1.93167 9.50781 1.93173 9.50781C1.93178 9.50781 1.93184 9.50781 1.93189 9.50781C1.93195 9.50781 1.932 9.50781 1.93206 9.50781C1.93211 9.50781 1.93217 9.50781 1.93222 9.50781C1.93228 9.50781 1.93233 9.50781 1.93239 9.50781C1.93244 9.50781 1.9325 9.50781 1.93255 9.50781C1.93261 9.50781 1.93266 9.50781 1.93272 9.50781C1.93277 9.50781 1.93282 9.50781 1.93288 9.50781C1.93293 9.50781 1.93299 9.50781 1.93304 9.50781C1.93309 9.50781 1.93315 9.50781 1.9332 9.50781C1.93326 9.50781 1.93331 9.50781 1.93336 9.50781C1.93342 9.50781 1.93347 9.50781 1.93352 9.50781C1.93358 9.50781 1.93363 9.50781 1.93368 9.50781C1.93374 9.50781 1.93379 9.50781 1.93384 9.50781C1.9339 9.50781 1.93395 9.50781 1.934 9.50781C1.93406 9.50781 1.93411 9.50781 1.93416 9.50781C1.93421 9.50781 1.93427 9.50781 1.93432 9.50781C1.93437 9.50781 1.93442 9.50781 1.93448 9.50781C1.93453 9.50781 1.93458 9.50781 1.93463 9.50781C1.93468 9.50781 1.93474 9.50781 1.93479 9.50781C1.93484 9.50781 1.93489 9.50781 1.93494 9.50781C1.935 9.50781 1.93505 9.50781 1.9351 9.50781C1.93515 9.50781 1.9352 9.50781 1.93525 9.50781C1.93531 9.50781 1.93536 9.50781 1.93541 9.50781C1.93546 9.50781 1.93551 9.50781 1.93556 9.50781C1.93561 9.50781 1.93566 9.50781 1.93571 9.50781C1.93577 9.50781 1.93582 9.50781 1.93587 9.50781C1.93592 9.50781 1.93597 9.50781 1.93602 9.50781C1.93607 9.50781 1.93612 9.50781 1.93617 9.50781C1.93622 9.50781 1.93627 9.50781 1.93632 9.50781C1.93637 9.50781 1.93642 9.50781 1.93647 9.50781C1.93652 9.50781 1.93657 9.50781 1.93662 9.50781C1.93667 9.50781 1.93672 9.50781 1.93677 9.50781C1.93682 9.50781 1.93687 9.50781 1.93692 9.50781C1.93697 9.50781 1.93702 9.50781 1.93707 9.50781C1.93712 9.50781 1.93717 9.50781 1.93722 9.50781C1.93726 9.50781 1.93731 9.50781 1.93736 9.50781C1.93741 9.50781 1.93746 9.50781 1.93751 9.50781C1.93756 9.50781 1.93761 9.50781 1.93766 9.50781C1.93771 9.50781 1.93775 9.50781 1.9378 9.50781C1.93785 9.50781 1.9379 9.50781 1.93795 9.50781C1.938 9.50781 1.93805 9.50781 1.93809 9.50781C1.93814 9.50781 1.93819 9.50781 1.93824 9.50781C1.93829 9.50781 1.93833 9.50781 1.93838 9.50781C1.93843 9.50781 1.93848 9.50781 1.93853 9.50781C1.93857 9.50781 1.93862 9.50781 1.93867 9.50781C1.93872 9.50781 1.93876 9.50781 1.93881 9.50781C1.93886 9.50781 1.93891 9.50781 1.93895 9.50781C1.939 9.50781 1.93905 9.50781 1.9391 9.50781C1.93914 9.50781 1.93919 9.50781 1.93924 9.50781C1.93928 9.50781 1.93933 9.50781 1.93938 9.50781C1.93943 9.50781 1.93947 9.50781 1.93952 9.50781C1.93957 9.50781 1.93961 9.50781 1.93966 9.50781C1.93971 9.50781 1.93975 9.50781 1.9398 9.50781C1.93985 9.50781 1.93989 9.50781 1.93994 9.50781C1.93999 9.50781 1.94003 9.50781 1.94008 9.50781C1.94012 9.50781 1.94017 9.50781 1.94022 9.50781C1.94026 9.50781 1.94031 9.50781 1.94035 9.50781C1.9404 9.50781 1.94045 9.50781 1.94049 9.50781C1.94054 9.50781 1.94058 9.50781 1.94063 9.50781C1.94068 9.50781 1.94072 9.50781 1.94077 9.50781C1.94081 9.50781 1.94086 9.50781 1.9409 9.50781C1.94095 9.50781 1.94099 9.50781 1.94104 9.50781C1.94108 9.50781 1.94113 9.50781 1.94118 9.50781C1.94122 9.50781 1.94127 9.50781 1.94131 9.50781C1.94136 9.50781 1.9414 9.50781 1.94145 9.50781C1.94149 9.50781 1.94154 9.50781 1.94158 9.50781C1.94162 9.50781 1.94167 9.50781 1.94171 9.50781C1.94176 9.50781 1.9418 9.50781 1.94185 9.50781C1.94189 9.50781 1.94194 9.50781 1.94198 9.50781C1.94203 9.50781 1.94207 9.50781 1.94211 9.50781C1.94216 9.50781 1.9422 9.50781 1.94225 9.50781C1.94229 9.50781 1.94234 9.50781 1.94238 9.50781C1.94242 9.50781 1.94247 9.50781 1.94251 9.50781C1.94256 9.50781 1.9426 9.50781 1.94264 9.50781C1.94269 9.50781 1.94273 9.50781 1.94278 9.50781C1.94282 9.50781 1.94286 9.50781 1.94291 9.50781C1.94295 9.50781 1.94299 9.50781 1.94304 9.50781C1.94308 9.50781 1.94312 9.50781 1.94317 9.50781C1.94321 9.50781 1.94325 9.50781 1.9433 9.50781C1.94334 9.50781 1.94338 9.50781 1.94343 9.50781C1.94347 9.50781 1.94351 9.50781 1.94356 9.50781C1.9436 9.50781 1.94364 9.50781 1.94369 9.50781C1.94373 9.50781 1.94377 9.50781 1.94381 9.50781C1.94386 9.50781 1.9439 9.50781 1.94394 9.50781C1.94399 9.50781 1.94403 9.50781 1.94407 9.50781C1.94411 9.50781 1.94416 9.50781 1.9442 9.50781C1.94424 9.50781 1.94428 9.50781 1.94433 9.50781C1.94437 9.50781 1.94441 9.50781 1.94445 9.50781C1.9445 9.50781 1.94454 9.50781 1.94458 9.50781C1.94462 9.50781 1.94466 9.50781 1.94471 9.50781C1.94475 9.50781 1.94479 9.50781 1.94483 9.50781C1.94488 9.50781 1.94492 9.50781 1.94496 9.50781C1.945 9.50781 1.94504 9.50781 1.94509 9.50781C1.94513 9.50781 1.94517 9.50781 1.94521 9.50781C1.94525 9.50781 1.94529 9.50781 1.94534 9.50781C1.94538 9.50781 1.94542 9.50781 1.94546 9.50781C1.9455 9.50781 1.94554 9.50781 1.94559 9.50781C1.94563 9.50781 1.94567 9.50781 1.94571 9.50781C1.94575 9.50781 1.94579 9.50781 1.94583 9.50781C1.94588 9.50781 1.94592 9.50781 1.94596 9.50781C1.946 9.50781 1.94604 9.50781 1.94608 9.50781C1.94612 9.50781 1.94616 9.50781 1.9462 9.50781C1.94625 9.50781 1.94629 9.50781 1.94633 9.50781C1.94637 9.50781 1.94641 9.50781 1.94645 9.50781C1.94649 9.50781 1.94653 9.50781 1.94657 9.50781C1.94661 9.50781 1.94665 9.50781 1.9467 9.50781C1.94674 9.50781 1.94678 9.50781 1.94682 9.50781C1.94686 9.50781 1.9469 9.50781 1.94694 9.50781C1.94698 9.50781 1.94702 9.50781 1.94706 9.50781C1.9471 9.50781 1.94714 9.50781 1.94718 9.50781C1.94722 9.50781 1.94726 9.50781 1.9473 9.50781C1.94734 9.50781 1.94739 9.50781 1.94743 9.50781C1.94747 9.50781 1.94751 9.50781 1.94755 9.50781C1.94759 9.50781 1.94763 9.50781 1.94767 9.50781C1.94771 9.50781 1.94775 9.50781 1.94779 9.50781C1.94783 9.50781 1.94787 9.50781 1.94791 9.50781C1.94795 9.50781 1.94799 9.50781 1.94803 9.50781C1.94807 9.50781 1.94811 9.50781 1.94815 9.50781C1.94819 9.50781 1.94823 9.50781 1.94827 9.50781C1.94831 9.50781 1.94835 9.50781 1.94839 9.50781C1.94843 9.50781 1.94847 9.50781 1.94851 9.50781C1.94855 9.50781 1.94858 9.50781 1.94862 9.50781C1.94866 9.50781 1.9487 9.50781 1.94874 9.50781C1.94878 9.50781 1.94882 9.50781 1.94886 9.50781C1.9489 9.50781 1.94894 9.50781 1.94898 9.50781C1.94902 9.50781 1.94906 9.50781 1.9491 9.50781C1.94914 9.50781 1.94918 9.50781 1.94922 9.50781C1.94926 9.50781 1.9493 9.50781 1.94934 9.50781C1.94937 9.50781 1.94941 9.50781 1.94945 9.50781C1.94949 9.50781 1.94953 9.50781 1.94957 9.50781C1.94961 9.50781 1.94965 9.50781 1.94969 9.50781C1.94973 9.50781 1.94977 9.50781 1.94981 9.50781C1.94985 9.50781 1.94988 9.50781 1.94992 9.50781C1.94996 9.50781 1.95 9.50781 1.95004 9.50781C1.95008 9.50781 1.95012 9.50781 1.95016 9.50781C1.9502 9.50781 1.95024 9.50781 1.95027 9.50781C1.95031 9.50781 1.95035 9.50781 1.95039 9.50781C1.95043 9.50781 1.95047 9.50781 1.95051 9.50781C1.95055 9.50781 1.95059 9.50781 1.95062 9.50781C1.95066 9.50781 1.9507 9.50781 1.95074 9.50781C1.95078 9.50781 1.95082 9.50781 1.95086 9.50781C1.9509 9.50781 1.95093 9.50781 1.95097 9.50781C1.95101 9.50781 1.95105 9.50781 1.95109 9.50781C1.95113 9.50781 1.95117 9.50781 1.95121 9.50781C1.95124 9.50781 1.95128 9.50781 1.95132 9.50781C1.95136 9.50781 1.9514 9.50781 1.95144 9.50781C1.95148 9.50781 1.95151 9.50781 1.95155 9.50781C1.95159 9.50781 1.95163 9.50781 1.95167 9.50781C1.95171 9.50781 1.95175 9.50781 1.95178 9.50781C1.95182 9.50781 1.95186 9.50781 1.9519 9.50781C1.95194 9.50781 1.95198 9.50781 1.95201 9.50781C1.95205 9.50781 1.95209 9.50781 1.95213 9.50781C1.95217 9.50781 1.95221 9.50781 1.95224 9.50781C1.95228 9.50781 1.95232 9.50781 1.95236 9.50781C1.9524 9.50781 1.95244 9.50781 1.95248 9.50781C1.95251 9.50781 1.95255 9.50781 1.95259 9.50781C1.95263 9.50781 1.95267 9.50781 1.9527 9.50781C1.95274 9.50781 1.95278 9.50781 1.95282 9.50781C1.95286 9.50781 1.9529 9.50781 1.95293 9.50781C1.95297 9.50781 1.95301 9.50781 1.95305 9.50781C1.95309 9.50781 1.95313 9.50781 1.95316 9.50781C1.9532 9.50781 1.95324 9.50781 1.95328 9.50781C1.95332 9.50781 1.95336 9.50781 1.95339 9.50781C1.95343 9.50781 1.95347 9.50781 1.95351 9.50781C1.95355 9.50781 1.95358 9.50781 1.95362 9.50781C1.95366 9.50781 1.9537 9.50781 1.95374 9.50781C1.95378 9.50781 1.95381 9.50781 1.95385 9.50781C1.95389 9.50781 1.95393 9.50781 1.95397 9.50781C1.954 9.50781 1.95404 9.50781 1.95408 9.50781C1.95412 9.50781 1.95416 9.50781 1.95419 9.50781C1.95423 9.50781 1.95427 9.50781 1.95431 9.50781C1.95435 9.50781 1.95439 9.50781 1.95442 9.50781C1.95446 9.50781 1.9545 9.50781 1.95454 9.50781C1.95458 9.50781 1.95461 9.50781 1.95465 9.50781C1.95469 9.50781 1.95473 9.50781 1.95477 9.50781C1.95481 9.50781 1.95484 9.50781 1.95488 9.50781C1.95492 9.50781 1.95496 9.50781 1.955 9.50781C1.95503 9.50781 1.95507 9.50781 1.95511 9.50781C1.95515 9.50781 1.95519 9.50781 1.95523 9.50781C1.95526 9.50781 1.9553 9.50781 1.95534 9.50781C1.95538 9.50781 1.95542 9.50781 1.95545 9.50781C1.95549 9.50781 1.95553 9.50781 1.95557 9.50781C1.95561 9.50781 1.95565 9.50781 1.95568 9.50781C1.95572 9.50781 1.95576 9.50781 1.9558 9.50781C1.95584 9.50781 1.95587 9.50781 1.95591 9.50781C1.95595 9.50781 1.95599 9.50781 1.95603 9.50781C1.95607 9.50781 1.9561 9.50781 1.95614 9.50781C1.95618 9.50781 1.95622 9.50781 1.95626 9.50781C1.9563 9.50781 1.95633 9.50781 1.95637 9.50781C1.95641 9.50781 1.95645 9.50781 1.95649 9.50781C1.95652 9.50781 1.95656 9.50781 1.9566 9.50781C1.95664 9.50781 1.95668 9.50781 1.95672 9.50781C1.95676 9.50781 1.95679 9.50781 1.95683 9.50781C1.95687 9.50781 1.95691 9.50781 1.95695 9.50781C1.95699 9.50781 1.95702 9.50781 1.95706 9.50781C1.9571 9.50781 1.95714 9.50781 1.95718 9.50781C1.95722 9.50781 1.95725 9.50781 1.95729 9.50781C1.95733 9.50781 1.95737 9.50781 1.95741 9.50781C1.95745 9.50781 1.95749 9.50781 1.95752 9.50781C1.95756 9.50781 1.9576 9.50781 1.95764 9.50781C1.95768 9.50781 1.95772 9.50781 1.95776 9.50781C1.95779 9.50781 1.95783 9.50781 1.95787 9.50781C1.95791 9.50781 1.95795 9.50781 1.95799 9.50781C1.95803 9.50781 1.95806 9.50781 1.9581 9.50781C1.95814 9.50781 1.95818 9.50781 1.95822 9.50781C1.95826 9.50781 1.9583 9.50781 1.95834 9.50781C1.95837 9.50781 1.95841 9.50781 1.95845 9.50781C1.95849 9.50781 1.95853 9.50781 1.95857 9.50781C1.95861 9.50781 1.95865 9.50781 1.95869 9.50781C1.95872 9.50781 1.95876 9.50781 1.9588 9.50781C1.95884 9.50781 1.95888 9.50781 1.95892 9.50781C1.95896 9.50781 1.959 9.50781 1.95904 9.50781C1.95908 9.50781 1.95911 9.50781 1.95915 9.50781C1.95919 9.50781 1.95923 9.50781 1.95927 9.50781C1.95931 9.50781 1.95935 9.50781 1.95939 9.50781C1.95943 9.50781 1.95947 9.50781 1.95951 9.50781C1.95954 9.50781 1.95958 9.50781 1.95962 9.50781C1.95966 9.50781 1.9597 9.50781 1.95974 9.50781C1.95978 9.50781 1.95982 9.50781 1.95986 9.50781C1.9599 9.50781 1.95994 9.50781 1.95998 9.50781C1.96002 9.50781 1.96006 9.50781 1.9601 9.50781C1.96014 9.50781 1.96017 9.50781 1.96021 9.50781C1.96025 9.50781 1.96029 9.50781 1.96033 9.50781C1.96037 9.50781 1.96041 9.50781 1.96045 9.50781C1.96049 9.50781 1.96053 9.50781 1.96057 9.50781C1.96061 9.50781 1.96065 9.50781 1.96069 9.50781C1.96073 9.50781 1.96077 9.50781 1.96081 9.50781C1.96085 9.50781 1.96089 9.50781 1.96093 9.50781C1.96097 9.50781 1.96101 9.50781 1.96105 9.50781C1.96109 9.50781 1.96113 9.50781 1.96117 9.50781C1.96121 9.50781 1.96125 9.50781 1.96129 9.50781C1.96133 9.50781 1.96137 9.50781 1.96141 9.50781C1.96145 9.50781 1.96149 9.50781 1.96153 9.50781C1.96157 9.50781 1.96161 9.50781 1.96165 9.50781C1.96169 9.50781 1.96173 9.50781 1.96177 9.50781C1.96181 9.50781 1.96185 9.50781 1.96189 9.50781C1.96193 9.50781 1.96197 9.50781 1.96202 9.50781C1.96206 9.50781 1.9621 9.50781 1.96214 9.50781C1.96218 9.50781 1.96222 9.50781 1.96226 9.50781C1.9623 9.50781 1.96234 9.50781 1.96238 9.50781C1.96242 9.50781 1.96246 9.50781 1.9625 9.50781C1.96254 9.50781 1.96259 9.50781 1.96263 9.50781C1.96267 9.50781 1.96271 9.50781 1.96275 9.50781C1.96279 9.50781 1.96283 9.50781 1.96287 9.50781C1.96291 9.50781 1.96295 9.50781 1.963 9.50781C1.96304 9.50781 1.96308 9.50781 1.96312 9.50781C1.96316 9.50781 1.9632 9.50781 1.96324 9.50781C1.96328 9.50781 1.96333 9.50781 1.96337 9.50781C1.96341 9.50781 1.96345 9.50781 1.96349 9.50781C1.96353 9.50781 1.96357 9.50781 1.96362 9.50781C1.96366 9.50781 1.9637 9.50781 1.96374 9.50781C1.96378 9.50781 1.96382 9.50781 1.96387 9.50781C1.96391 9.50781 1.96395 9.50781 1.96399 9.50781C1.96403 9.50781 1.96408 9.50781 1.96412 9.50781C1.96416 9.50781 1.9642 9.50781 1.96424 9.50781C1.96429 9.50781 1.96433 9.50781 1.96437 9.50781C1.96441 9.50781 1.96445 9.50781 1.9645 9.50781C1.96454 9.50781 1.96458 9.50781 1.96462 9.50781C1.96467 9.50781 1.96471 9.50781 1.96475 9.50781C1.96479 9.50781 1.96484 9.50781 1.96488 9.50781C1.96492 9.50781 1.96496 9.50781 1.96501 9.50781C1.96505 9.50781 1.96509 9.50781 1.96513 9.50781C1.96518 9.50781 1.96522 9.50781 1.96526 9.50781C1.96531 9.50781 1.96535 9.50781 1.96539 9.50781C1.96543 9.50781 1.96548 9.50781 1.96552 9.50781C1.96556 9.50781 1.96561 9.50781 1.96565 9.50781C1.96569 9.50781 1.96574 9.50781 1.96578 9.50781C1.96582 9.50781 1.96587 9.50781 1.96591 9.50781C1.96595 9.50781 1.966 9.50781 1.96604 9.50781C1.96608 9.50781 1.96613 9.50781 1.96617 9.50781C1.96621 9.50781 1.96626 9.50781 1.9663 9.50781C1.96635 9.50781 1.96639 9.50781 1.96643 9.50781C1.96648 9.50781 1.96652 9.50781 1.96656 9.50781C1.96661 9.50781 1.96665 9.50781 1.9667 9.50781C1.96674 9.50781 1.96678 9.50781 1.96683 9.50781C1.96687 9.50781 1.96692 9.50781 1.96696 9.50781C1.96701 9.50781 1.96705 9.50781 1.96709 9.50781C1.96714 9.50781 1.96718 9.50781 1.96723 9.50781C1.96727 9.50781 1.96732 9.50781 1.96736 9.50781C1.96741 9.50781 1.96745 9.50781 1.9675 9.50781C1.96754 9.50781 1.96759 9.50781 1.96763 9.50781C1.96768 9.50781 1.96772 9.50781 1.96777 9.50781C1.96781 9.50781 1.96786 9.50781 1.9679 9.50781C1.96795 9.50781 1.96799 9.50781 1.96804 9.50781C1.96808 9.50781 1.96813 9.50781 1.96817 9.50781C1.96822 9.50781 1.96826 9.50781 1.96831 9.50781C1.96836 9.50781 1.9684 9.50781 1.96845 9.50781C1.96849 9.50781 1.96854 9.50781 1.96858 9.50781C1.96863 9.50781 1.96868 9.50781 1.96872 9.50781C1.96877 9.50781 1.96881 9.50781 1.96886 9.50781C1.96891 9.50781 1.96895 9.50781 1.969 9.50781C1.96904 9.50781 1.96909 9.50781 1.96914 9.50781C1.96918 9.50781 1.96923 9.50781 1.96928 9.50781C1.96932 9.50781 1.96937 9.50781 1.96942 9.50781C1.96946 9.50781 1.96951 9.50781 1.96956 9.50781C1.9696 9.50781 1.96965 9.50781 1.9697 9.50781C1.96974 9.50781 1.96979 9.50781 1.96984 9.50781C1.96989 9.50781 1.96993 9.50781 1.96998 9.50781C1.97003 9.50781 1.97007 9.50781 1.97012 9.50781C1.97017 9.50781 1.97022 9.50781 1.97026 9.50781C1.97031 9.50781 1.97036 9.50781 1.97041 9.50781C1.97046 9.50781 1.9705 9.50781 1.97055 9.50781C1.9706 9.50781 1.97065 9.50781 1.97069 9.50781C1.97074 9.50781 1.97079 9.50781 1.97084 9.50781C1.97089 9.50781 1.97093 9.50781 1.97098 9.50781C1.97103 9.50781 1.97108 9.50781 1.97113 9.50781C1.97118 9.50781 1.97123 9.50781 1.97127 9.50781C1.97132 9.50781 1.97137 9.50781 1.97142 9.50781C1.97147 9.50781 1.97152 9.50781 1.97157 9.50781C1.97162 9.50781 1.97166 9.50781 1.97171 9.50781C1.97176 9.50781 1.97181 9.50781 1.97186 9.50781C1.97191 9.50781 1.97196 9.50781 1.97201 9.50781C1.97206 9.50781 1.97211 9.50781 1.97216 9.50781C1.97221 9.50781 1.97226 9.50781 1.97231 9.50781C1.97236 9.50781 1.97241 9.50781 1.97246 9.50781C1.97251 9.50781 1.97256 9.50781 1.97261 9.50781C1.97266 9.50781 1.97271 9.50781 1.97276 9.50781C1.97281 9.50781 1.97286 9.50781 1.97291 9.50781C1.97296 9.50781 1.97301 9.50781 1.97306 9.50781C1.97311 9.50781 1.97316 9.50781 1.97321 9.50781C1.97326 9.50781 1.97331 9.50781 1.97336 9.50781C1.97341 9.50781 1.97346 9.50781 1.97352 9.50781C1.97357 9.50781 1.97362 9.50781 1.97367 9.50781C1.97372 9.50781 1.97377 9.50781 1.97382 9.50781C1.97387 9.50781 1.97393 9.50781 1.97398 9.50781C1.97403 9.50781 1.97408 9.50781 1.97413 9.50781C1.97418 9.50781 1.97424 9.50781 1.97429 9.50781C1.97434 9.50781 1.97439 9.50781 1.97444 9.50781C1.9745 9.50781 1.97455 9.50781 1.9746 9.50781C1.97465 9.50781 1.97471 9.50781 1.97476 9.50781C1.97481 9.50781 1.97486 9.50781 1.97492 9.50781C1.97497 9.50781 1.97502 9.50781 1.97507 9.50781C1.97513 9.50781 1.97518 9.50781 1.97523 9.50781C1.97529 9.50781 1.97534 9.50781 1.97539 9.50781C1.97545 9.50781 1.9755 9.50781 1.97555 9.50781C1.97561 9.50781 1.97566 9.50781 1.97571 9.50781C1.97577 9.50781 1.97582 9.50781 1.97587 9.50781C1.97593 9.50781 1.97598 9.50781 1.97604 9.50781C1.97609 9.50781 1.97614 9.50781 1.9762 9.50781C1.97625 9.50781 1.97631 9.50781 1.97636 9.50781C1.97642 9.50781 1.97647 9.50781 1.97652 9.50781C1.97658 9.50781 1.97663 9.50781 1.97669 9.50781C1.97674 9.50781 1.9768 9.50781 1.97685 9.50781C1.97691 9.50781 1.97696 9.50781 1.97702 9.50781C1.97707 9.50781 1.97713 9.50781 1.97718 9.50781C1.97724 9.50781 1.97729 9.50781 1.97735 9.50781C1.97741 9.50781 1.97746 9.50781 1.97752 9.50781C1.97757 9.50781 1.97763 9.50781 1.97768 9.50781C1.97774 9.50781 1.9778 9.50781 1.97785 9.50781C1.97791 9.50781 1.97797 9.50781 1.97802 9.50781C1.97808 9.50781 1.97813 9.50781 1.97819 9.50781C1.97825 9.50781 1.9783 9.50781 1.97836 9.50781C1.97842 9.50781 1.97848 9.50781 1.97853 9.50781C1.97859 9.50781 1.97865 9.50781 1.9787 9.50781C1.97876 9.50781 1.97882 9.50781 1.97888 9.50781C1.97893 9.50781 1.97899 9.50781 1.97905 9.50781C1.97911 9.50781 1.97916 9.50781 1.97922 9.50781C1.97928 9.50781 1.97934 9.50781 1.9794 9.50781C1.97945 9.50781 1.97951 9.50781 1.97957 9.50781C1.97963 9.50781 1.97969 9.50781 1.97975 9.50781C1.9798 9.50781 1.97986 9.50781 1.97992 9.50781C1.97998 9.50781 1.98004 9.50781 1.9801 9.50781C1.98016 9.50781 1.98022 9.50781 1.98027 9.50781C1.98033 9.50781 1.98039 9.50781 1.98045 9.50781C1.98051 9.50781 1.98057 9.50781 1.98063 9.50781C1.98069 9.50781 1.98075 9.50781 1.98081 9.50781C1.98087 9.50781 1.98093 9.50781 1.98099 9.50781C1.98105 9.50781 1.98111 9.50781 1.98117 9.50781C1.98123 9.50781 1.98129 9.50781 1.98135 9.50781C1.98141 9.50781 1.98147 9.50781 1.98153 9.50781C1.98159 9.50781 1.98165 9.50781 1.98172 9.50781C1.98178 9.50781 1.98184 9.50781 1.9819 9.50781C1.98196 9.50781 1.98202 9.50781 1.98208 9.50781C1.98214 9.50781 1.98221 9.50781 1.98227 9.50781C1.98233 9.50781 1.98239 9.50781 1.98245 9.50781C1.98251 9.50781 1.98258 9.50781 1.98264 9.50781C1.9827 9.50781 1.98276 9.50781 1.98283 9.50781C1.98289 9.50781 1.98295 9.50781 1.98301 9.50781C1.98308 9.50781 1.98314 9.50781 1.9832 9.50781C1.98326 9.50781 1.98333 9.50781 1.98339 9.50781C1.98345 9.50781 1.98352 9.50781 1.98358 9.50781C1.98364 9.50781 1.98371 9.50781 1.98377 9.50781C1.98383 9.50781 1.9839 9.50781 1.98396 9.50781C1.98403 9.50781 1.98409 9.50781 1.98415 9.50781C1.98422 9.50781 1.98428 9.50781 1.98435 9.50781C1.98441 9.50781 1.98447 9.50781 1.98454 9.50781C1.9846 9.50781 1.98467 9.50781 1.98473 9.50781C1.9848 9.50781 1.98486 9.50781 1.98493 9.50781C1.98499 9.50781 1.98506 9.50781 1.98512 9.50781C1.98519 9.50781 1.98525 9.50781 1.98532 9.50781C1.98539 9.50781 1.98545 9.50781 1.98552 9.50781C1.98558 9.50781 1.98565 9.50781 1.98571 9.50781C1.98578 9.50781 1.98585 9.50781 1.98591 9.50781C1.98598 9.50781 1.98605 9.50781 1.98611 9.50781C1.98618 9.50781 1.98625 9.50781 1.98631 9.50781C1.98638 9.50781 1.98645 9.50781 1.98651 9.50781C1.98658 9.50781 1.98665 9.50781 1.98672 9.50781C1.98678 9.50781 1.98685 9.50781 1.98692 9.50781C1.98699 9.50781 1.98705 9.50781 1.98712 9.50781C1.98719 9.50781 1.98726 9.50781 1.98732 9.50781C1.98739 9.50781 1.98746 9.50781 1.98753 9.50781C1.9876 9.50781 1.98767 9.50781 1.98774 9.50781C1.9878 9.50781 1.98787 9.50781 1.98794 9.50781C1.98801 9.50781 1.98808 9.50781 1.98815 9.50781C1.98822 9.50781 1.98829 9.50781 1.98836 9.50781C1.98843 9.50781 1.9885 9.50781 1.98857 9.50781C1.98864 9.50781 1.98871 9.50781 1.98878 9.50781C1.98885 9.50781 1.98892 9.50781 1.98899 9.50781C1.98906 9.50781 1.98913 9.50781 1.9892 9.50781C1.98927 9.50781 1.98934 9.50781 1.98941 9.50781C1.98948 9.50781 1.98955 9.50781 1.98962 9.50781C1.98969 9.50781 1.98976 9.50781 1.98984 9.50781C1.98991 9.50781 1.98998 9.50781 1.99005 9.50781C1.99012 9.50781 1.99019 9.50781 1.99027 9.50781C1.99034 9.50781 1.99041 9.50781 1.99048 9.50781C1.99055 9.50781 1.99063 9.50781 1.9907 9.50781C1.99077 9.50781 1.99084 9.50781 1.99092 9.50781C1.99099 9.50781 1.99106 9.50781 1.99114 9.50781C1.99121 9.50781 1.99128 9.50781 1.99136 9.50781C1.99143 9.50781 1.9915 9.50781 1.99158 9.50781C1.99165 9.50781 1.99172 9.50781 1.9918 9.50781C1.99187 9.50781 1.99195 9.50781 1.99202 9.50781C1.99209 9.50781 1.99217 9.50781 1.99224 9.50781C1.99232 9.50781 1.99239 9.50781 1.99247 9.50781C1.99254 9.50781 1.99262 9.50781 1.99269 9.50781C1.99277 9.50781 1.99284 9.50781 1.99292 9.50781C1.99299 9.50781 1.99307 9.50781 1.99314 9.50781C1.99322 9.50781 1.9933 9.50781 1.99337 9.50781C1.99345 9.50781 1.99352 9.50781 1.9936 9.50781V8.00781V6.50781C1.99352 6.50781 1.99345 6.50781 1.99337 6.50781C1.9933 6.50781 1.99322 6.50781 1.99314 6.50781C1.99307 6.50781 1.99299 6.50781 1.99292 6.50781C1.99284 6.50781 1.99277 6.50781 1.99269 6.50781C1.99262 6.50781 1.99254 6.50781 1.99247 6.50781C1.99239 6.50781 1.99232 6.50781 1.99224 6.50781C1.99217 6.50781 1.99209 6.50781 1.99202 6.50781C1.99195 6.50781 1.99187 6.50781 1.9918 6.50781C1.99172 6.50781 1.99165 6.50781 1.99158 6.50781C1.9915 6.50781 1.99143 6.50781 1.99136 6.50781C1.99128 6.50781 1.99121 6.50781 1.99114 6.50781C1.99106 6.50781 1.99099 6.50781 1.99092 6.50781C1.99084 6.50781 1.99077 6.50781 1.9907 6.50781C1.99063 6.50781 1.99055 6.50781 1.99048 6.50781C1.99041 6.50781 1.99034 6.50781 1.99027 6.50781C1.99019 6.50781 1.99012 6.50781 1.99005 6.50781C1.98998 6.50781 1.98991 6.50781 1.98984 6.50781C1.98976 6.50781 1.98969 6.50781 1.98962 6.50781C1.98955 6.50781 1.98948 6.50781 1.98941 6.50781C1.98934 6.50781 1.98927 6.50781 1.9892 6.50781C1.98913 6.50781 1.98906 6.50781 1.98899 6.50781C1.98892 6.50781 1.98885 6.50781 1.98878 6.50781C1.98871 6.50781 1.98864 6.50781 1.98857 6.50781C1.9885 6.50781 1.98843 6.50781 1.98836 6.50781C1.98829 6.50781 1.98822 6.50781 1.98815 6.50781C1.98808 6.50781 1.98801 6.50781 1.98794 6.50781C1.98787 6.50781 1.9878 6.50781 1.98774 6.50781C1.98767 6.50781 1.9876 6.50781 1.98753 6.50781C1.98746 6.50781 1.98739 6.50781 1.98732 6.50781C1.98726 6.50781 1.98719 6.50781 1.98712 6.50781C1.98705 6.50781 1.98699 6.50781 1.98692 6.50781C1.98685 6.50781 1.98678 6.50781 1.98672 6.50781C1.98665 6.50781 1.98658 6.50781 1.98651 6.50781C1.98645 6.50781 1.98638 6.50781 1.98631 6.50781C1.98625 6.50781 1.98618 6.50781 1.98611 6.50781C1.98605 6.50781 1.98598 6.50781 1.98591 6.50781C1.98585 6.50781 1.98578 6.50781 1.98571 6.50781C1.98565 6.50781 1.98558 6.50781 1.98552 6.50781C1.98545 6.50781 1.98539 6.50781 1.98532 6.50781C1.98525 6.50781 1.98519 6.50781 1.98512 6.50781C1.98506 6.50781 1.98499 6.50781 1.98493 6.50781C1.98486 6.50781 1.9848 6.50781 1.98473 6.50781C1.98467 6.50781 1.9846 6.50781 1.98454 6.50781C1.98447 6.50781 1.98441 6.50781 1.98435 6.50781C1.98428 6.50781 1.98422 6.50781 1.98415 6.50781C1.98409 6.50781 1.98403 6.50781 1.98396 6.50781C1.9839 6.50781 1.98383 6.50781 1.98377 6.50781C1.98371 6.50781 1.98364 6.50781 1.98358 6.50781C1.98352 6.50781 1.98345 6.50781 1.98339 6.50781C1.98333 6.50781 1.98326 6.50781 1.9832 6.50781C1.98314 6.50781 1.98308 6.50781 1.98301 6.50781C1.98295 6.50781 1.98289 6.50781 1.98283 6.50781C1.98276 6.50781 1.9827 6.50781 1.98264 6.50781C1.98258 6.50781 1.98251 6.50781 1.98245 6.50781C1.98239 6.50781 1.98233 6.50781 1.98227 6.50781C1.98221 6.50781 1.98214 6.50781 1.98208 6.50781C1.98202 6.50781 1.98196 6.50781 1.9819 6.50781C1.98184 6.50781 1.98178 6.50781 1.98172 6.50781C1.98165 6.50781 1.98159 6.50781 1.98153 6.50781C1.98147 6.50781 1.98141 6.50781 1.98135 6.50781C1.98129 6.50781 1.98123 6.50781 1.98117 6.50781C1.98111 6.50781 1.98105 6.50781 1.98099 6.50781C1.98093 6.50781 1.98087 6.50781 1.98081 6.50781C1.98075 6.50781 1.98069 6.50781 1.98063 6.50781C1.98057 6.50781 1.98051 6.50781 1.98045 6.50781C1.98039 6.50781 1.98033 6.50781 1.98027 6.50781C1.98022 6.50781 1.98016 6.50781 1.9801 6.50781C1.98004 6.50781 1.97998 6.50781 1.97992 6.50781C1.97986 6.50781 1.9798 6.50781 1.97975 6.50781C1.97969 6.50781 1.97963 6.50781 1.97957 6.50781C1.97951 6.50781 1.97945 6.50781 1.9794 6.50781C1.97934 6.50781 1.97928 6.50781 1.97922 6.50781C1.97916 6.50781 1.97911 6.50781 1.97905 6.50781C1.97899 6.50781 1.97893 6.50781 1.97888 6.50781C1.97882 6.50781 1.97876 6.50781 1.9787 6.50781C1.97865 6.50781 1.97859 6.50781 1.97853 6.50781C1.97848 6.50781 1.97842 6.50781 1.97836 6.50781C1.9783 6.50781 1.97825 6.50781 1.97819 6.50781C1.97813 6.50781 1.97808 6.50781 1.97802 6.50781C1.97797 6.50781 1.97791 6.50781 1.97785 6.50781C1.9778 6.50781 1.97774 6.50781 1.97768 6.50781C1.97763 6.50781 1.97757 6.50781 1.97752 6.50781C1.97746 6.50781 1.97741 6.50781 1.97735 6.50781C1.97729 6.50781 1.97724 6.50781 1.97718 6.50781C1.97713 6.50781 1.97707 6.50781 1.97702 6.50781C1.97696 6.50781 1.97691 6.50781 1.97685 6.50781C1.9768 6.50781 1.97674 6.50781 1.97669 6.50781C1.97663 6.50781 1.97658 6.50781 1.97652 6.50781C1.97647 6.50781 1.97642 6.50781 1.97636 6.50781C1.97631 6.50781 1.97625 6.50781 1.9762 6.50781C1.97614 6.50781 1.97609 6.50781 1.97604 6.50781C1.97598 6.50781 1.97593 6.50781 1.97587 6.50781C1.97582 6.50781 1.97577 6.50781 1.97571 6.50781C1.97566 6.50781 1.97561 6.50781 1.97555 6.50781C1.9755 6.50781 1.97545 6.50781 1.97539 6.50781C1.97534 6.50781 1.97529 6.50781 1.97523 6.50781C1.97518 6.50781 1.97513 6.50781 1.97507 6.50781C1.97502 6.50781 1.97497 6.50781 1.97492 6.50781C1.97486 6.50781 1.97481 6.50781 1.97476 6.50781C1.97471 6.50781 1.97465 6.50781 1.9746 6.50781C1.97455 6.50781 1.9745 6.50781 1.97444 6.50781C1.97439 6.50781 1.97434 6.50781 1.97429 6.50781C1.97424 6.50781 1.97418 6.50781 1.97413 6.50781C1.97408 6.50781 1.97403 6.50781 1.97398 6.50781C1.97393 6.50781 1.97387 6.50781 1.97382 6.50781C1.97377 6.50781 1.97372 6.50781 1.97367 6.50781C1.97362 6.50781 1.97357 6.50781 1.97352 6.50781C1.97346 6.50781 1.97341 6.50781 1.97336 6.50781C1.97331 6.50781 1.97326 6.50781 1.97321 6.50781C1.97316 6.50781 1.97311 6.50781 1.97306 6.50781C1.97301 6.50781 1.97296 6.50781 1.97291 6.50781C1.97286 6.50781 1.97281 6.50781 1.97276 6.50781C1.97271 6.50781 1.97266 6.50781 1.97261 6.50781C1.97256 6.50781 1.97251 6.50781 1.97246 6.50781C1.97241 6.50781 1.97236 6.50781 1.97231 6.50781C1.97226 6.50781 1.97221 6.50781 1.97216 6.50781C1.97211 6.50781 1.97206 6.50781 1.97201 6.50781C1.97196 6.50781 1.97191 6.50781 1.97186 6.50781C1.97181 6.50781 1.97176 6.50781 1.97171 6.50781C1.97166 6.50781 1.97162 6.50781 1.97157 6.50781C1.97152 6.50781 1.97147 6.50781 1.97142 6.50781C1.97137 6.50781 1.97132 6.50781 1.97127 6.50781C1.97123 6.50781 1.97118 6.50781 1.97113 6.50781C1.97108 6.50781 1.97103 6.50781 1.97098 6.50781C1.97093 6.50781 1.97089 6.50781 1.97084 6.50781C1.97079 6.50781 1.97074 6.50781 1.97069 6.50781C1.97065 6.50781 1.9706 6.50781 1.97055 6.50781C1.9705 6.50781 1.97046 6.50781 1.97041 6.50781C1.97036 6.50781 1.97031 6.50781 1.97026 6.50781C1.97022 6.50781 1.97017 6.50781 1.97012 6.50781C1.97007 6.50781 1.97003 6.50781 1.96998 6.50781C1.96993 6.50781 1.96989 6.50781 1.96984 6.50781C1.96979 6.50781 1.96974 6.50781 1.9697 6.50781C1.96965 6.50781 1.9696 6.50781 1.96956 6.50781C1.96951 6.50781 1.96946 6.50781 1.96942 6.50781C1.96937 6.50781 1.96932 6.50781 1.96928 6.50781C1.96923 6.50781 1.96918 6.50781 1.96914 6.50781C1.96909 6.50781 1.96904 6.50781 1.969 6.50781C1.96895 6.50781 1.96891 6.50781 1.96886 6.50781C1.96881 6.50781 1.96877 6.50781 1.96872 6.50781C1.96868 6.50781 1.96863 6.50781 1.96858 6.50781C1.96854 6.50781 1.96849 6.50781 1.96845 6.50781C1.9684 6.50781 1.96836 6.50781 1.96831 6.50781C1.96826 6.50781 1.96822 6.50781 1.96817 6.50781C1.96813 6.50781 1.96808 6.50781 1.96804 6.50781C1.96799 6.50781 1.96795 6.50781 1.9679 6.50781C1.96786 6.50781 1.96781 6.50781 1.96777 6.50781C1.96772 6.50781 1.96768 6.50781 1.96763 6.50781C1.96759 6.50781 1.96754 6.50781 1.9675 6.50781C1.96745 6.50781 1.96741 6.50781 1.96736 6.50781C1.96732 6.50781 1.96727 6.50781 1.96723 6.50781C1.96718 6.50781 1.96714 6.50781 1.96709 6.50781C1.96705 6.50781 1.96701 6.50781 1.96696 6.50781C1.96692 6.50781 1.96687 6.50781 1.96683 6.50781C1.96678 6.50781 1.96674 6.50781 1.9667 6.50781C1.96665 6.50781 1.96661 6.50781 1.96656 6.50781C1.96652 6.50781 1.96648 6.50781 1.96643 6.50781C1.96639 6.50781 1.96635 6.50781 1.9663 6.50781C1.96626 6.50781 1.96621 6.50781 1.96617 6.50781C1.96613 6.50781 1.96608 6.50781 1.96604 6.50781C1.966 6.50781 1.96595 6.50781 1.96591 6.50781C1.96587 6.50781 1.96582 6.50781 1.96578 6.50781C1.96574 6.50781 1.96569 6.50781 1.96565 6.50781C1.96561 6.50781 1.96556 6.50781 1.96552 6.50781C1.96548 6.50781 1.96543 6.50781 1.96539 6.50781C1.96535 6.50781 1.96531 6.50781 1.96526 6.50781C1.96522 6.50781 1.96518 6.50781 1.96513 6.50781C1.96509 6.50781 1.96505 6.50781 1.96501 6.50781C1.96496 6.50781 1.96492 6.50781 1.96488 6.50781C1.96484 6.50781 1.96479 6.50781 1.96475 6.50781C1.96471 6.50781 1.96467 6.50781 1.96462 6.50781C1.96458 6.50781 1.96454 6.50781 1.9645 6.50781C1.96445 6.50781 1.96441 6.50781 1.96437 6.50781C1.96433 6.50781 1.96429 6.50781 1.96424 6.50781C1.9642 6.50781 1.96416 6.50781 1.96412 6.50781C1.96408 6.50781 1.96403 6.50781 1.96399 6.50781C1.96395 6.50781 1.96391 6.50781 1.96387 6.50781C1.96382 6.50781 1.96378 6.50781 1.96374 6.50781C1.9637 6.50781 1.96366 6.50781 1.96362 6.50781C1.96357 6.50781 1.96353 6.50781 1.96349 6.50781C1.96345 6.50781 1.96341 6.50781 1.96337 6.50781C1.96333 6.50781 1.96328 6.50781 1.96324 6.50781C1.9632 6.50781 1.96316 6.50781 1.96312 6.50781C1.96308 6.50781 1.96304 6.50781 1.963 6.50781C1.96295 6.50781 1.96291 6.50781 1.96287 6.50781C1.96283 6.50781 1.96279 6.50781 1.96275 6.50781C1.96271 6.50781 1.96267 6.50781 1.96263 6.50781C1.96259 6.50781 1.96254 6.50781 1.9625 6.50781C1.96246 6.50781 1.96242 6.50781 1.96238 6.50781C1.96234 6.50781 1.9623 6.50781 1.96226 6.50781C1.96222 6.50781 1.96218 6.50781 1.96214 6.50781C1.9621 6.50781 1.96206 6.50781 1.96202 6.50781C1.96197 6.50781 1.96193 6.50781 1.96189 6.50781C1.96185 6.50781 1.96181 6.50781 1.96177 6.50781C1.96173 6.50781 1.96169 6.50781 1.96165 6.50781C1.96161 6.50781 1.96157 6.50781 1.96153 6.50781C1.96149 6.50781 1.96145 6.50781 1.96141 6.50781C1.96137 6.50781 1.96133 6.50781 1.96129 6.50781C1.96125 6.50781 1.96121 6.50781 1.96117 6.50781C1.96113 6.50781 1.96109 6.50781 1.96105 6.50781C1.96101 6.50781 1.96097 6.50781 1.96093 6.50781C1.96089 6.50781 1.96085 6.50781 1.96081 6.50781C1.96077 6.50781 1.96073 6.50781 1.96069 6.50781C1.96065 6.50781 1.96061 6.50781 1.96057 6.50781C1.96053 6.50781 1.96049 6.50781 1.96045 6.50781C1.96041 6.50781 1.96037 6.50781 1.96033 6.50781C1.96029 6.50781 1.96025 6.50781 1.96021 6.50781C1.96017 6.50781 1.96014 6.50781 1.9601 6.50781C1.96006 6.50781 1.96002 6.50781 1.95998 6.50781C1.95994 6.50781 1.9599 6.50781 1.95986 6.50781C1.95982 6.50781 1.95978 6.50781 1.95974 6.50781C1.9597 6.50781 1.95966 6.50781 1.95962 6.50781C1.95958 6.50781 1.95954 6.50781 1.95951 6.50781C1.95947 6.50781 1.95943 6.50781 1.95939 6.50781C1.95935 6.50781 1.95931 6.50781 1.95927 6.50781C1.95923 6.50781 1.95919 6.50781 1.95915 6.50781C1.95911 6.50781 1.95908 6.50781 1.95904 6.50781C1.959 6.50781 1.95896 6.50781 1.95892 6.50781C1.95888 6.50781 1.95884 6.50781 1.9588 6.50781C1.95876 6.50781 1.95872 6.50781 1.95869 6.50781C1.95865 6.50781 1.95861 6.50781 1.95857 6.50781C1.95853 6.50781 1.95849 6.50781 1.95845 6.50781C1.95841 6.50781 1.95837 6.50781 1.95834 6.50781C1.9583 6.50781 1.95826 6.50781 1.95822 6.50781C1.95818 6.50781 1.95814 6.50781 1.9581 6.50781C1.95806 6.50781 1.95803 6.50781 1.95799 6.50781C1.95795 6.50781 1.95791 6.50781 1.95787 6.50781C1.95783 6.50781 1.95779 6.50781 1.95776 6.50781C1.95772 6.50781 1.95768 6.50781 1.95764 6.50781C1.9576 6.50781 1.95756 6.50781 1.95752 6.50781C1.95749 6.50781 1.95745 6.50781 1.95741 6.50781C1.95737 6.50781 1.95733 6.50781 1.95729 6.50781C1.95725 6.50781 1.95722 6.50781 1.95718 6.50781C1.95714 6.50781 1.9571 6.50781 1.95706 6.50781C1.95702 6.50781 1.95699 6.50781 1.95695 6.50781C1.95691 6.50781 1.95687 6.50781 1.95683 6.50781C1.95679 6.50781 1.95676 6.50781 1.95672 6.50781C1.95668 6.50781 1.95664 6.50781 1.9566 6.50781C1.95656 6.50781 1.95652 6.50781 1.95649 6.50781C1.95645 6.50781 1.95641 6.50781 1.95637 6.50781C1.95633 6.50781 1.9563 6.50781 1.95626 6.50781C1.95622 6.50781 1.95618 6.50781 1.95614 6.50781C1.9561 6.50781 1.95607 6.50781 1.95603 6.50781C1.95599 6.50781 1.95595 6.50781 1.95591 6.50781C1.95587 6.50781 1.95584 6.50781 1.9558 6.50781C1.95576 6.50781 1.95572 6.50781 1.95568 6.50781C1.95565 6.50781 1.95561 6.50781 1.95557 6.50781C1.95553 6.50781 1.95549 6.50781 1.95545 6.50781C1.95542 6.50781 1.95538 6.50781 1.95534 6.50781C1.9553 6.50781 1.95526 6.50781 1.95523 6.50781C1.95519 6.50781 1.95515 6.50781 1.95511 6.50781C1.95507 6.50781 1.95503 6.50781 1.955 6.50781C1.95496 6.50781 1.95492 6.50781 1.95488 6.50781C1.95484 6.50781 1.95481 6.50781 1.95477 6.50781C1.95473 6.50781 1.95469 6.50781 1.95465 6.50781C1.95461 6.50781 1.95458 6.50781 1.95454 6.50781C1.9545 6.50781 1.95446 6.50781 1.95442 6.50781C1.95439 6.50781 1.95435 6.50781 1.95431 6.50781C1.95427 6.50781 1.95423 6.50781 1.95419 6.50781C1.95416 6.50781 1.95412 6.50781 1.95408 6.50781C1.95404 6.50781 1.954 6.50781 1.95397 6.50781C1.95393 6.50781 1.95389 6.50781 1.95385 6.50781C1.95381 6.50781 1.95378 6.50781 1.95374 6.50781C1.9537 6.50781 1.95366 6.50781 1.95362 6.50781C1.95358 6.50781 1.95355 6.50781 1.95351 6.50781C1.95347 6.50781 1.95343 6.50781 1.95339 6.50781C1.95336 6.50781 1.95332 6.50781 1.95328 6.50781C1.95324 6.50781 1.9532 6.50781 1.95316 6.50781C1.95313 6.50781 1.95309 6.50781 1.95305 6.50781C1.95301 6.50781 1.95297 6.50781 1.95293 6.50781C1.9529 6.50781 1.95286 6.50781 1.95282 6.50781C1.95278 6.50781 1.95274 6.50781 1.9527 6.50781C1.95267 6.50781 1.95263 6.50781 1.95259 6.50781C1.95255 6.50781 1.95251 6.50781 1.95248 6.50781C1.95244 6.50781 1.9524 6.50781 1.95236 6.50781C1.95232 6.50781 1.95228 6.50781 1.95224 6.50781C1.95221 6.50781 1.95217 6.50781 1.95213 6.50781C1.95209 6.50781 1.95205 6.50781 1.95201 6.50781C1.95198 6.50781 1.95194 6.50781 1.9519 6.50781C1.95186 6.50781 1.95182 6.50781 1.95178 6.50781C1.95175 6.50781 1.95171 6.50781 1.95167 6.50781C1.95163 6.50781 1.95159 6.50781 1.95155 6.50781C1.95151 6.50781 1.95148 6.50781 1.95144 6.50781C1.9514 6.50781 1.95136 6.50781 1.95132 6.50781C1.95128 6.50781 1.95124 6.50781 1.95121 6.50781C1.95117 6.50781 1.95113 6.50781 1.95109 6.50781C1.95105 6.50781 1.95101 6.50781 1.95097 6.50781C1.95093 6.50781 1.9509 6.50781 1.95086 6.50781C1.95082 6.50781 1.95078 6.50781 1.95074 6.50781C1.9507 6.50781 1.95066 6.50781 1.95062 6.50781C1.95059 6.50781 1.95055 6.50781 1.95051 6.50781C1.95047 6.50781 1.95043 6.50781 1.95039 6.50781C1.95035 6.50781 1.95031 6.50781 1.95027 6.50781C1.95024 6.50781 1.9502 6.50781 1.95016 6.50781C1.95012 6.50781 1.95008 6.50781 1.95004 6.50781C1.95 6.50781 1.94996 6.50781 1.94992 6.50781C1.94988 6.50781 1.94985 6.50781 1.94981 6.50781C1.94977 6.50781 1.94973 6.50781 1.94969 6.50781C1.94965 6.50781 1.94961 6.50781 1.94957 6.50781C1.94953 6.50781 1.94949 6.50781 1.94945 6.50781C1.94941 6.50781 1.94937 6.50781 1.94934 6.50781C1.9493 6.50781 1.94926 6.50781 1.94922 6.50781C1.94918 6.50781 1.94914 6.50781 1.9491 6.50781C1.94906 6.50781 1.94902 6.50781 1.94898 6.50781C1.94894 6.50781 1.9489 6.50781 1.94886 6.50781C1.94882 6.50781 1.94878 6.50781 1.94874 6.50781C1.9487 6.50781 1.94866 6.50781 1.94862 6.50781C1.94858 6.50781 1.94855 6.50781 1.94851 6.50781C1.94847 6.50781 1.94843 6.50781 1.94839 6.50781C1.94835 6.50781 1.94831 6.50781 1.94827 6.50781C1.94823 6.50781 1.94819 6.50781 1.94815 6.50781C1.94811 6.50781 1.94807 6.50781 1.94803 6.50781C1.94799 6.50781 1.94795 6.50781 1.94791 6.50781C1.94787 6.50781 1.94783 6.50781 1.94779 6.50781C1.94775 6.50781 1.94771 6.50781 1.94767 6.50781C1.94763 6.50781 1.94759 6.50781 1.94755 6.50781C1.94751 6.50781 1.94747 6.50781 1.94743 6.50781C1.94739 6.50781 1.94734 6.50781 1.9473 6.50781C1.94726 6.50781 1.94722 6.50781 1.94718 6.50781C1.94714 6.50781 1.9471 6.50781 1.94706 6.50781C1.94702 6.50781 1.94698 6.50781 1.94694 6.50781C1.9469 6.50781 1.94686 6.50781 1.94682 6.50781C1.94678 6.50781 1.94674 6.50781 1.9467 6.50781C1.94665 6.50781 1.94661 6.50781 1.94657 6.50781C1.94653 6.50781 1.94649 6.50781 1.94645 6.50781C1.94641 6.50781 1.94637 6.50781 1.94633 6.50781C1.94629 6.50781 1.94625 6.50781 1.9462 6.50781C1.94616 6.50781 1.94612 6.50781 1.94608 6.50781C1.94604 6.50781 1.946 6.50781 1.94596 6.50781C1.94592 6.50781 1.94588 6.50781 1.94583 6.50781C1.94579 6.50781 1.94575 6.50781 1.94571 6.50781C1.94567 6.50781 1.94563 6.50781 1.94559 6.50781C1.94554 6.50781 1.9455 6.50781 1.94546 6.50781C1.94542 6.50781 1.94538 6.50781 1.94534 6.50781C1.94529 6.50781 1.94525 6.50781 1.94521 6.50781C1.94517 6.50781 1.94513 6.50781 1.94509 6.50781C1.94504 6.50781 1.945 6.50781 1.94496 6.50781C1.94492 6.50781 1.94488 6.50781 1.94483 6.50781C1.94479 6.50781 1.94475 6.50781 1.94471 6.50781C1.94466 6.50781 1.94462 6.50781 1.94458 6.50781C1.94454 6.50781 1.9445 6.50781 1.94445 6.50781C1.94441 6.50781 1.94437 6.50781 1.94433 6.50781C1.94428 6.50781 1.94424 6.50781 1.9442 6.50781C1.94416 6.50781 1.94411 6.50781 1.94407 6.50781C1.94403 6.50781 1.94399 6.50781 1.94394 6.50781C1.9439 6.50781 1.94386 6.50781 1.94381 6.50781C1.94377 6.50781 1.94373 6.50781 1.94369 6.50781C1.94364 6.50781 1.9436 6.50781 1.94356 6.50781C1.94351 6.50781 1.94347 6.50781 1.94343 6.50781C1.94338 6.50781 1.94334 6.50781 1.9433 6.50781C1.94325 6.50781 1.94321 6.50781 1.94317 6.50781C1.94312 6.50781 1.94308 6.50781 1.94304 6.50781C1.94299 6.50781 1.94295 6.50781 1.94291 6.50781C1.94286 6.50781 1.94282 6.50781 1.94278 6.50781C1.94273 6.50781 1.94269 6.50781 1.94264 6.50781C1.9426 6.50781 1.94256 6.50781 1.94251 6.50781C1.94247 6.50781 1.94242 6.50781 1.94238 6.50781C1.94234 6.50781 1.94229 6.50781 1.94225 6.50781C1.9422 6.50781 1.94216 6.50781 1.94211 6.50781C1.94207 6.50781 1.94203 6.50781 1.94198 6.50781C1.94194 6.50781 1.94189 6.50781 1.94185 6.50781C1.9418 6.50781 1.94176 6.50781 1.94171 6.50781C1.94167 6.50781 1.94162 6.50781 1.94158 6.50781C1.94154 6.50781 1.94149 6.50781 1.94145 6.50781C1.9414 6.50781 1.94136 6.50781 1.94131 6.50781C1.94127 6.50781 1.94122 6.50781 1.94118 6.50781C1.94113 6.50781 1.94108 6.50781 1.94104 6.50781C1.94099 6.50781 1.94095 6.50781 1.9409 6.50781C1.94086 6.50781 1.94081 6.50781 1.94077 6.50781C1.94072 6.50781 1.94068 6.50781 1.94063 6.50781C1.94058 6.50781 1.94054 6.50781 1.94049 6.50781C1.94045 6.50781 1.9404 6.50781 1.94035 6.50781C1.94031 6.50781 1.94026 6.50781 1.94022 6.50781C1.94017 6.50781 1.94012 6.50781 1.94008 6.50781C1.94003 6.50781 1.93999 6.50781 1.93994 6.50781C1.93989 6.50781 1.93985 6.50781 1.9398 6.50781C1.93975 6.50781 1.93971 6.50781 1.93966 6.50781C1.93961 6.50781 1.93957 6.50781 1.93952 6.50781C1.93947 6.50781 1.93943 6.50781 1.93938 6.50781C1.93933 6.50781 1.93928 6.50781 1.93924 6.50781C1.93919 6.50781 1.93914 6.50781 1.9391 6.50781C1.93905 6.50781 1.939 6.50781 1.93895 6.50781C1.93891 6.50781 1.93886 6.50781 1.93881 6.50781C1.93876 6.50781 1.93872 6.50781 1.93867 6.50781C1.93862 6.50781 1.93857 6.50781 1.93853 6.50781C1.93848 6.50781 1.93843 6.50781 1.93838 6.50781C1.93833 6.50781 1.93829 6.50781 1.93824 6.50781C1.93819 6.50781 1.93814 6.50781 1.93809 6.50781C1.93805 6.50781 1.938 6.50781 1.93795 6.50781C1.9379 6.50781 1.93785 6.50781 1.9378 6.50781C1.93775 6.50781 1.93771 6.50781 1.93766 6.50781C1.93761 6.50781 1.93756 6.50781 1.93751 6.50781C1.93746 6.50781 1.93741 6.50781 1.93736 6.50781C1.93731 6.50781 1.93726 6.50781 1.93722 6.50781C1.93717 6.50781 1.93712 6.50781 1.93707 6.50781C1.93702 6.50781 1.93697 6.50781 1.93692 6.50781C1.93687 6.50781 1.93682 6.50781 1.93677 6.50781C1.93672 6.50781 1.93667 6.50781 1.93662 6.50781C1.93657 6.50781 1.93652 6.50781 1.93647 6.50781C1.93642 6.50781 1.93637 6.50781 1.93632 6.50781C1.93627 6.50781 1.93622 6.50781 1.93617 6.50781C1.93612 6.50781 1.93607 6.50781 1.93602 6.50781C1.93597 6.50781 1.93592 6.50781 1.93587 6.50781C1.93582 6.50781 1.93577 6.50781 1.93571 6.50781C1.93566 6.50781 1.93561 6.50781 1.93556 6.50781C1.93551 6.50781 1.93546 6.50781 1.93541 6.50781C1.93536 6.50781 1.93531 6.50781 1.93525 6.50781C1.9352 6.50781 1.93515 6.50781 1.9351 6.50781C1.93505 6.50781 1.935 6.50781 1.93494 6.50781C1.93489 6.50781 1.93484 6.50781 1.93479 6.50781C1.93474 6.50781 1.93468 6.50781 1.93463 6.50781C1.93458 6.50781 1.93453 6.50781 1.93448 6.50781C1.93442 6.50781 1.93437 6.50781 1.93432 6.50781C1.93427 6.50781 1.93421 6.50781 1.93416 6.50781C1.93411 6.50781 1.93406 6.50781 1.934 6.50781C1.93395 6.50781 1.9339 6.50781 1.93384 6.50781C1.93379 6.50781 1.93374 6.50781 1.93368 6.50781C1.93363 6.50781 1.93358 6.50781 1.93352 6.50781C1.93347 6.50781 1.93342 6.50781 1.93336 6.50781C1.93331 6.50781 1.93326 6.50781 1.9332 6.50781C1.93315 6.50781 1.93309 6.50781 1.93304 6.50781C1.93299 6.50781 1.93293 6.50781 1.93288 6.50781C1.93282 6.50781 1.93277 6.50781 1.93272 6.50781C1.93266 6.50781 1.93261 6.50781 1.93255 6.50781C1.9325 6.50781 1.93244 6.50781 1.93239 6.50781C1.93233 6.50781 1.93228 6.50781 1.93222 6.50781C1.93217 6.50781 1.93211 6.50781 1.93206 6.50781C1.932 6.50781 1.93195 6.50781 1.93189 6.50781C1.93184 6.50781 1.93178 6.50781 1.93173 6.50781C1.93167 6.50781 1.93161 6.50781 1.93156 6.50781C1.9315 6.50781 1.93145 6.50781 1.93139 6.50781C1.93134 6.50781 1.93128 6.50781 1.93122 6.50781C1.93117 6.50781 1.93111 6.50781 1.93105 6.50781C1.931 6.50781 1.93094 6.50781 1.93089 6.50781C1.93083 6.50781 1.93077 6.50781 1.93072 6.50781C1.93066 6.50781 1.9306 6.50781 1.93054 6.50781C1.93049 6.50781 1.93043 6.50781 1.93037 6.50781C1.93032 6.50781 1.93026 6.50781 1.9302 6.50781C1.93014 6.50781 1.93009 6.50781 1.93003 6.50781C1.92997 6.50781 1.92991 6.50781 1.92986 6.50781C1.9298 6.50781 1.92974 6.50781 1.92968 6.50781C1.92962 6.50781 1.92957 6.50781 1.92951 6.50781C1.92945 6.50781 1.92939 6.50781 1.92933 6.50781C1.92927 6.50781 1.92921 6.50781 1.92916 6.50781C1.9291 6.50781 1.92904 6.50781 1.92898 6.50781C1.92892 6.50781 1.92886 6.50781 1.9288 6.50781C1.92874 6.50781 1.92868 6.50781 1.92862 6.50781C1.92856 6.50781 1.92851 6.50781 1.92845 6.50781C1.92839 6.50781 1.92833 6.50781 1.92827 6.50781C1.92821 6.50781 1.92815 6.50781 1.92809 6.50781C1.92803 6.50781 1.92797 6.50781 1.92791 6.50781C1.92785 6.50781 1.92779 6.50781 1.92773 6.50781C1.92766 6.50781 1.9276 6.50781 1.92754 6.50781C1.92748 6.50781 1.92742 6.50781 1.92736 6.50781C1.9273 6.50781 1.92724 6.50781 1.92718 6.50781C1.92712 6.50781 1.92706 6.50781 1.92699 6.50781C1.92693 6.50781 1.92687 6.50781 1.92681 6.50781C1.92675 6.50781 1.92669 6.50781 1.92662 6.50781C1.92656 6.50781 1.9265 6.50781 1.92644 6.50781C1.92638 6.50781 1.92631 6.50781 1.92625 6.50781C1.92619 6.50781 1.92613 6.50781 1.92606 6.50781C1.926 6.50781 1.92594 6.50781 1.92588 6.50781C1.92581 6.50781 1.92575 6.50781 1.92569 6.50781C1.92562 6.50781 1.92556 6.50781 1.9255 6.50781C1.92543 6.50781 1.92537 6.50781 1.92531 6.50781C1.92524 6.50781 1.92518 6.50781 1.92512 6.50781C1.92505 6.50781 1.92499 6.50781 1.92492 6.50781C1.92486 6.50781 1.9248 6.50781 1.92473 6.50781C1.92467 6.50781 1.9246 6.50781 1.92454 6.50781C1.92447 6.50781 1.92441 6.50781 1.92434 6.50781C1.92428 6.50781 1.92421 6.50781 1.92415 6.50781C1.92408 6.50781 1.92402 6.50781 1.92395 6.50781C1.92389 6.50781 1.92382 6.50781 1.92376 6.50781C1.92369 6.50781 1.92363 6.50781 1.92356 6.50781C1.92349 6.50781 1.92343 6.50781 1.92336 6.50781C1.9233 6.50781 1.92323 6.50781 1.92316 6.50781C1.9231 6.50781 1.92303 6.50781 1.92296 6.50781C1.9229 6.50781 1.92283 6.50781 1.92276 6.50781C1.9227 6.50781 1.92263 6.50781 1.92256 6.50781C1.9225 6.50781 1.92243 6.50781 1.92236 6.50781C1.92229 6.50781 1.92223 6.50781 1.92216 6.50781C1.92209 6.50781 1.92202 6.50781 1.92196 6.50781C1.92189 6.50781 1.92182 6.50781 1.92175 6.50781C1.92168 6.50781 1.92162 6.50781 1.92155 6.50781C1.92148 6.50781 1.92141 6.50781 1.92134 6.50781C1.92127 6.50781 1.9212 6.50781 1.92113 6.50781C1.92107 6.50781 1.921 6.50781 1.92093 6.50781C1.92086 6.50781 1.92079 6.50781 1.92072 6.50781C1.92065 6.50781 1.92058 6.50781 1.92051 6.50781C1.92044 6.50781 1.92037 6.50781 1.9203 6.50781C1.92023 6.50781 1.92016 6.50781 1.92009 6.50781C1.92002 6.50781 1.91995 6.50781 1.91988 6.50781C1.91981 6.50781 1.91974 6.50781 1.91967 6.50781C1.9196 6.50781 1.91953 6.50781 1.91945 6.50781C1.91938 6.50781 1.91931 6.50781 1.91924 6.50781C1.91917 6.50781 1.9191 6.50781 1.91903 6.50781C1.91895 6.50781 1.91888 6.50781 1.91881 6.50781C1.91874 6.50781 1.91867 6.50781 1.91859 6.50781C1.91852 6.50781 1.91845 6.50781 1.91838 6.50781C1.9183 6.50781 1.91823 6.50781 1.91816 6.50781C1.91809 6.50781 1.91801 6.50781 1.91794 6.50781C1.91787 6.50781 1.91779 6.50781 1.91772 6.50781C1.91765 6.50781 1.91757 6.50781 1.9175 6.50781C1.91743 6.50781 1.91735 6.50781 1.91728 6.50781C1.9172 6.50781 1.91713 6.50781 1.91706 6.50781C1.91698 6.50781 1.91691 6.50781 1.91683 6.50781C1.91676 6.50781 1.91668 6.50781 1.91661 6.50781C1.91653 6.50781 1.91646 6.50781 1.91638 6.50781C1.91631 6.50781 1.91623 6.50781 1.91616 6.50781C1.91608 6.50781 1.91601 6.50781 1.91593 6.50781C1.91586 6.50781 1.91578 6.50781 1.9157 6.50781C1.91563 6.50781 1.91555 6.50781 1.91548 6.50781V8.00781ZM1.9936 8.00781V9.50781C2.27838 9.50781 2.50524 9.43748 2.63748 9.38789C2.76337 9.34068 2.87397 9.28374 2.8988 9.27133L2.22798 7.92969L1.55716 6.58805C1.50386 6.61469 1.53633 6.59682 1.5841 6.57891C1.63822 6.55861 1.78694 6.50781 1.9936 6.50781V8.00781ZM2.22798 7.92969L3.10518 9.14645L6.46455 6.72458L5.58735 5.50781L4.71015 4.29105L1.35077 6.71292L2.22798 7.92969ZM5.58735 5.50781L4.42946 6.46137L4.97633 7.12544L6.13423 6.17188L7.29212 5.21831L6.74525 4.55425L5.58735 5.50781ZM6.13423 6.17188L5.18542 5.01008C2.51344 7.1922 0.845163 10.4221 0.845163 14.0625H2.34516H3.84516C3.84516 11.3747 5.06752 8.97967 7.08303 7.33367L6.13423 6.17188ZM2.34516 14.0625H0.845163C0.845163 18.0473 2.85921 21.6377 5.96624 23.709L6.79829 22.4609L7.63034 21.2129C5.34674 19.6905 3.84516 17.0309 3.84516 14.0625H2.34516ZM6.79829 22.4609L5.55413 21.623L4.26507 23.5371L5.50923 24.375L6.75338 25.2129L8.04244 23.2988L6.79829 22.4609ZM5.50923 24.375L4.22299 23.6033C3.75044 24.3908 3.83637 25.5971 4.85467 26.2081L5.62641 24.9219L6.39816 23.6356C6.66143 23.7936 6.85782 24.0651 6.9215 24.3836C6.98203 24.6862 6.91002 24.9558 6.79547 25.1467L5.50923 24.375ZM5.62641 24.9219L4.95559 26.2635C4.98042 26.2759 5.09102 26.3329 5.21691 26.3801C5.34915 26.4297 5.57601 26.5 5.86079 26.5V25V23.5C6.06745 23.5 6.21617 23.5508 6.27029 23.5711C6.31805 23.589 6.35053 23.6069 6.29723 23.5802L5.62641 24.9219ZM5.86079 25V26.5C6.57654 26.5 7.05846 26.0799 7.23395 25.9044L6.17329 24.8438L5.11263 23.7831C5.15496 23.7408 5.2188 23.6859 5.31341 23.6343C5.40224 23.5859 5.59263 23.5 5.86079 23.5V25ZM6.17329 24.8438L7.4252 25.67L8.71426 23.7169L7.46235 22.8906L6.21044 22.0644L4.92137 24.0175L6.17329 24.8438ZM7.46235 22.8906L6.7108 24.1888C8.42806 25.183 10.4068 25.7188 12.5014 25.7188V24.2188V22.7188C10.9242 22.7188 9.4654 22.317 8.21391 21.5925L7.46235 22.8906ZM12.5014 24.2188V25.7188C14.5091 25.7188 16.4062 25.2264 18.0856 24.2733L17.3452 22.9688L16.6048 21.6642C15.3935 22.3517 14.0094 22.7188 12.5014 22.7188V24.2188ZM17.3452 22.9688L16.1691 23.8998L17.6535 25.7748L18.8295 24.8438L20.0056 23.9127L18.5212 22.0377L17.3452 22.9688ZM18.8295 24.8438L17.7689 25.9044C17.9444 26.0799 18.4263 26.5 19.142 26.5V25V23.5C19.4102 23.5 19.6006 23.5859 19.6894 23.6343C19.784 23.6859 19.8479 23.7408 19.8902 23.7831L18.8295 24.8438ZM19.142 25V26.5C19.4268 26.5 19.6537 26.4297 19.7859 26.3801C19.9118 26.3329 20.0224 26.2759 20.0472 26.2635L19.3764 24.9219L18.7056 23.5802C18.6523 23.6069 18.6848 23.589 18.7325 23.5711C18.7867 23.5508 18.9354 23.5 19.142 23.5V25ZM19.3764 24.9219L20.2764 26.1219C20.7448 25.7706 20.9462 25.2725 21.0029 24.8752C21.0597 24.478 21.0058 23.9434 20.6545 23.475L19.4545 24.375L18.2545 25.275C18.0204 24.9628 18.0056 24.6431 18.0331 24.451C18.0605 24.2588 18.1643 23.956 18.4764 23.7219L19.3764 24.9219ZM19.4545 24.375L20.6234 23.4349L19.178 21.638L18.0092 22.5781L16.8404 23.5183L18.2857 25.3151L19.4545 24.375ZM18.0092 22.5781L18.8168 23.8422C22.0497 21.7767 24.1577 18.142 24.1577 14.0625H22.6577H21.1577C21.1577 17.0924 19.5937 19.7858 17.2016 21.3141L18.0092 22.5781ZM22.6577 14.0625H24.1577C24.1577 10.4282 22.4947 7.20014 19.9031 5.05535L18.9467 6.21094L17.9904 7.36653C19.93 8.97173 21.1577 11.3687 21.1577 14.0625H22.6577ZM18.9467 6.21094L20.0918 7.17985L20.5215 6.67204L19.3764 5.70312L18.2313 4.73421L17.8016 5.24202L18.9467 6.21094ZM19.3764 5.70312L18.5125 6.92935L21.95 9.35122L22.8139 8.125L23.6778 6.89878L20.2403 4.4769L19.3764 5.70312ZM22.8139 8.125L22.1431 9.46664C22.1679 9.47905 22.2785 9.53599 22.4044 9.5832C22.5367 9.63279 22.7635 9.70312 23.0483 9.70312V8.20312V6.70312C23.2549 6.70312 23.4037 6.75392 23.4578 6.77422C23.5056 6.79213 23.538 6.81001 23.4847 6.78336L22.8139 8.125ZM23.0483 8.20312V9.70312C23.5113 9.70312 24.176 9.52818 24.6089 8.87893L23.3608 8.04688L22.1127 7.21482C22.2317 7.03631 22.4021 6.89268 22.5985 6.8034C22.7821 6.71992 22.9448 6.70312 23.0483 6.70312V8.20312ZM23.3608 8.04688L24.6089 8.87893C25.2492 7.91842 25.4766 6.5395 25.2701 5.30028L23.7905 5.54688L22.3109 5.79347C22.4168 6.42925 22.2536 7.00345 22.1127 7.21482L23.3608 8.04688ZM10.9389 1.17188V2.67188H14.0639V1.17188V-0.328125H10.9389V1.17188ZM14.0639 1.17188H12.5639V1.5625H14.0639H15.5639V1.17188H14.0639ZM14.0639 1.5625V0.0625H10.9389V1.5625V3.0625H14.0639V1.5625ZM10.9389 1.5625H12.4389V1.17188H10.9389H9.43891V1.5625H10.9389ZM2.11079 7.03125L3.52753 6.53847C3.40854 6.19635 3.34913 5.00131 4.63517 4.06357L3.75141 2.85156L2.86766 1.63955C0.403696 3.43619 0.188042 6.06928 0.694043 7.52403L2.11079 7.03125ZM3.75141 2.85156L4.61465 4.07827C5.36807 3.54809 6.06555 3.45312 6.44673 3.45312V1.95312V0.453125C5.5779 0.453125 4.24413 0.670658 2.88817 1.62485L3.75141 2.85156ZM6.44673 1.95312V3.45312C6.71707 3.45312 6.95308 3.49215 7.13584 3.5467C7.22645 3.57375 7.29739 3.60265 7.34884 3.62802C7.40156 3.65402 7.42382 3.67136 7.42375 3.6713L8.36079 2.5L9.29783 1.3287C8.56828 0.745058 7.50071 0.453125 6.44673 0.453125V1.95312ZM8.36079 2.5L7.48034 1.28558L1.23034 5.81683L2.11079 7.03125L2.99124 8.24567L9.24124 3.71442L8.36079 2.5ZM21.8764 14.0625H20.3764C20.3764 18.3903 16.8292 21.9375 12.5014 21.9375V23.4375V24.9375C18.4861 24.9375 23.3764 20.0472 23.3764 14.0625H21.8764ZM12.5014 23.4375V21.9375C11.0594 21.9375 9.7239 21.5451 8.58566 20.8622L7.81391 22.1484L7.04217 23.4347C8.6383 24.3924 10.506 24.9375 12.5014 24.9375V23.4375ZM7.81391 22.1484L9.15555 21.4776C9.11622 21.3989 8.98566 21.1207 8.71832 20.8534L7.65766 21.9141L6.597 22.9747C6.54376 22.9215 6.50444 22.8679 6.47844 22.8262C6.46695 22.8079 6.46024 22.7953 6.45933 22.7936C6.4589 22.7928 6.45951 22.7939 6.46175 22.7983C6.46425 22.8032 6.46705 22.8088 6.47227 22.8193L7.81391 22.1484ZM7.65766 21.9141L8.13201 20.491C7.7562 20.3658 7.41159 20.375 7.34516 20.375V21.875V23.375C7.38688 23.375 7.37315 23.3757 7.35097 23.3737C7.32607 23.3715 7.26457 23.3642 7.18332 23.3371L7.65766 21.9141ZM7.34516 21.875L8.17277 20.624C6.03048 19.2068 4.62641 16.8133 4.62641 14.0625H3.12641H1.62641C1.62641 17.8742 3.58172 21.1839 6.51756 23.126L7.34516 21.875ZM3.12641 14.0625H4.62641C4.62641 11.5383 5.80206 9.31347 7.6758 7.86707L6.75923 6.67969L5.84265 5.4923C3.26327 7.4834 1.62641 10.5711 1.62641 14.0625H3.12641ZM6.75923 6.67969V8.17969C7.14284 8.17969 7.43318 8.03441 7.50817 7.99691C7.63056 7.93572 7.80822 7.83014 7.97614 7.66222L6.91548 6.60156L5.85482 5.5409C5.98367 5.41204 6.10273 5.34553 6.16653 5.31363C6.20754 5.29313 6.26555 5.26722 6.33982 5.24359C6.39608 5.22568 6.55032 5.17969 6.75923 5.17969V6.67969ZM6.91548 6.60156L7.97614 7.66222C7.98265 7.65571 8.00989 7.62866 8.03847 7.59818C8.06758 7.56712 8.11651 7.51321 8.16919 7.44297C8.24847 7.33726 8.4936 6.99335 8.4936 6.48438H6.9936H5.4936C5.4936 6.01446 5.7192 5.70962 5.76919 5.64297C5.831 5.56056 5.89395 5.50177 5.85482 5.5409L6.91548 6.60156ZM6.9936 6.48438L7.87405 7.69879C9.19172 6.74348 10.8 6.1875 12.5014 6.1875V4.6875V3.1875C10.1403 3.1875 7.92049 3.95964 6.11315 5.26996L6.9936 6.48438ZM12.5014 4.6875V6.1875C14.2387 6.1875 15.8084 6.74149 17.1288 7.69879L18.0092 6.48438L18.8897 5.26996C17.0851 3.96163 14.9048 3.1875 12.5014 3.1875V4.6875ZM18.0092 6.48438L16.9486 7.54504C16.8671 7.4636 16.8155 7.39046 16.797 7.36348C16.795 7.36068 16.7818 7.34103 16.7978 7.36487C16.8062 7.37736 16.8264 7.40724 16.8532 7.44298C16.913 7.5227 16.9977 7.62132 17.1144 7.71964C17.2282 7.81546 17.345 7.88789 17.4556 7.9432L18.1264 6.60156L18.7972 5.25992C18.8688 5.29571 18.9562 5.3486 19.0468 5.42489C19.1404 5.50368 19.208 5.58277 19.2532 5.64295C19.2726 5.66893 19.2861 5.68904 19.2879 5.69177C19.2974 5.70584 19.2777 5.67643 19.2691 5.66387C19.2371 5.61736 19.1709 5.52468 19.0699 5.42372L18.0092 6.48438ZM18.1264 6.60156L17.0658 7.66222C17.2337 7.83014 17.4113 7.93571 17.5337 7.99691C17.6087 8.03441 17.899 8.17969 18.2827 8.17969V6.67969V5.17969C18.4916 5.17969 18.6458 5.22568 18.7021 5.24359C18.7763 5.26722 18.8344 5.29313 18.8754 5.31364C18.9392 5.34554 19.0582 5.41205 19.1871 5.5409L18.1264 6.60156ZM18.2827 6.67969L17.3559 7.85917C19.1986 9.30696 20.3764 11.5363 20.3764 14.0625H21.8764H23.3764C23.3764 10.5731 21.7417 7.48991 19.2094 5.50021L18.2827 6.67969ZM22.892 7.22656L23.7571 6.00111L17.1164 1.31361L16.2514 2.53906L15.3864 3.76451L22.027 8.45201L22.892 7.22656ZM16.2514 2.53906L17.1337 3.75217C17.2774 3.6476 17.7017 3.45312 18.3217 3.45312V1.95312V0.453125C17.1448 0.453125 16.0848 0.805524 15.3692 1.32596L16.2514 2.53906ZM18.3217 1.95312V3.45312C18.7947 3.45312 19.5218 3.55436 20.3014 4.11123L21.1733 2.89062L22.0451 1.67002C20.6373 0.664386 19.255 0.453125 18.3217 0.453125V1.95312ZM21.1733 2.89062L20.3156 4.12122C21.2221 4.75305 21.4613 5.45644 21.5258 5.88657L23.0092 5.66406L24.4926 5.44155C24.3228 4.30919 23.7026 2.82507 22.031 1.66003L21.1733 2.89062ZM23.0092 5.66406L21.5208 5.85011C21.5828 6.34583 21.5242 6.60735 21.4993 6.66948L22.892 7.22656L24.2848 7.78365C24.5724 7.06452 24.5919 6.23229 24.4976 5.47801L23.0092 5.66406Z" fill="#FDDEDC" mask="url(#path-9-inside-5_125_206)"/>
</svg>
