<svg width="20" height="20" viewBox="0 0 20 20" fill="none" xmlns="http://www.w3.org/2000/svg">
<path d="M15.606 3.14701C15.3894 3.14407 15.1769 3.2054 14.9952 3.32325C14.8135 3.4411 14.6709 3.61018 14.5853 3.8091C14.4997 4.00803 14.475 4.22787 14.5143 4.44083C14.5537 4.65379 14.6553 4.8503 14.8063 5.00552C14.9573 5.16073 15.151 5.26768 15.3628 5.31284C15.5746 5.358 15.795 5.33934 15.9962 5.25922C16.1974 5.17911 16.3703 5.04113 16.4931 4.86274C16.6159 4.68435 16.683 4.47355 16.686 4.25701V4.22701C16.6834 3.94139 16.5688 3.6682 16.3668 3.46622C16.1648 3.26424 15.8916 3.14962 15.606 3.14701Z" stroke="#FDDEDC" stroke-width="1.33333" stroke-linecap="round" stroke-linejoin="round"/>
<path d="M18.191 0.667007H1.64102C1.38016 0.673531 1.13218 0.781761 0.950016 0.968595C0.767852 1.15543 0.665934 1.40607 0.666016 1.66701V18.217C0.666016 18.4822 0.771372 18.7366 0.958909 18.9241C1.14645 19.1117 1.4008 19.217 1.66602 19.217H18.216C18.4812 19.217 18.7356 19.1117 18.9231 18.9241C19.1107 18.7366 19.216 18.4822 19.216 18.217V1.64201C19.2128 1.51067 19.1837 1.38126 19.1304 1.26118C19.0771 1.14109 19.0007 1.03267 18.9055 0.942129C18.8103 0.851584 18.6982 0.780682 18.5756 0.733476C18.453 0.686269 18.3223 0.663683 18.191 0.667007Z" stroke="#FDDEDC" stroke-width="1.33333" stroke-linecap="round" stroke-linejoin="round"/>
<path d="M9.91539 5.77698C9.09658 5.77698 8.29615 6.01978 7.61533 6.47469C6.93451 6.9296 6.40388 7.57618 6.09053 8.33267C5.77718 9.08915 5.6952 9.92157 5.85494 10.7247C6.01468 11.5277 6.40898 12.2654 6.98797 12.8444C7.56696 13.4234 8.30464 13.8177 9.10772 13.9774C9.9108 14.1372 10.7432 14.0552 11.4997 13.7418C12.2562 13.4285 12.9028 12.8979 13.3577 12.217C13.8126 11.5362 14.0554 10.7358 14.0554 9.91698C14.0554 8.81898 13.6192 7.76596 12.8428 6.98955C12.0664 6.21315 11.0134 5.77698 9.91539 5.77698Z" stroke="#FDDEDC" stroke-width="1.33333" stroke-linecap="round" stroke-linejoin="round"/>
</svg>
