<svg width="100" height="100" viewBox="0 0 100 100" fill="none" xmlns="http://www.w3.org/2000/svg">
<path d="M75.7705 44.2506C75.7705 30.041 64.2102 18.4805 50.0004 18.4805C44.6445 18.4805 39.509 20.1084 35.1488 23.1881C34.4541 23.6789 34.2889 24.6398 34.7795 25.3346C35.2705 26.0293 36.2312 26.1945 36.926 25.7039C40.7635 22.9934 45.2846 21.5605 50.0006 21.5605C62.5119 21.5605 72.6904 31.7393 72.6904 44.2504C72.6904 53.1996 67.4068 61.3381 59.2297 64.9838C58.6744 65.2314 58.3168 65.7824 58.3168 66.3904V71.0471H56.4809V50.1744H59.2346C61.1637 50.1744 62.857 49.0105 63.548 47.2096C64.2393 45.4086 63.7592 43.4107 62.3252 42.1203L61.1115 41.0279C59.7361 39.7898 57.8314 39.4887 56.141 40.2414C54.4506 40.9943 53.4006 42.6113 53.4006 44.4619V47.0943H46.6002V44.4619C46.6002 42.6113 45.55 40.9943 43.8598 40.2414C42.1693 39.4885 40.2648 39.7898 38.8893 41.0279L37.6758 42.1203C36.242 43.4109 35.7619 45.4086 36.4529 47.2096C37.1441 49.0105 38.8373 50.1744 40.7664 50.1744H43.5201V71.0473H41.684V66.3906C41.684 65.7826 41.3264 65.2314 40.7711 64.984C32.5939 61.3383 27.3104 53.1998 27.3104 44.2506C27.3104 39.0117 29.0443 34.0916 32.325 30.0221C32.8586 29.3598 32.7545 28.3902 32.0926 27.8566C31.4305 27.3232 30.4609 27.4271 29.9271 28.0891C26.2537 32.6463 24.2305 38.3859 24.2305 44.2506C24.2305 54.0775 29.8391 63.043 38.6041 67.3684V71.0473H35.216C34.3654 71.0473 33.676 71.7367 33.676 72.5873V89.2197C33.676 95.1641 38.5119 100 44.4563 100H55.5445C61.4889 100 66.3248 95.1641 66.3248 89.2197V84.9076C66.3248 84.057 65.6354 83.3676 64.7848 83.3676C63.9342 83.3676 63.2447 84.057 63.2447 84.9076V87.6797H36.7562V82.3408H59.0355C59.8861 82.3408 60.5756 81.6514 60.5756 80.8008C60.5756 79.9502 59.8861 79.2607 59.0355 79.2607H36.7562V74.1273H63.2449V76.6941C63.2449 77.5447 63.9344 78.2342 64.785 78.2342C65.6355 78.2342 66.325 77.5447 66.325 76.6941V72.5873C66.325 71.7367 65.6355 71.0473 64.785 71.0473H61.3969V67.3684C70.1619 63.0428 75.7705 54.0771 75.7705 44.2506ZM56.4809 44.4617C56.4809 43.5338 57.1801 43.1504 57.3943 43.0549C57.6088 42.9596 58.3615 42.6963 59.051 43.3168L60.2646 44.4092C60.9945 45.0662 60.7611 45.8736 60.6723 46.1057C60.5834 46.3375 60.2166 47.0939 59.2346 47.0939H56.4809V44.4617ZM43.5203 47.0943H40.7666C39.3779 47.0943 38.6984 45.3436 39.7363 44.4096L40.9498 43.3172C41.9309 42.4342 43.5203 43.1543 43.5203 44.4619V47.0943ZM63.09 90.7598C62.3744 94.2703 59.2633 96.9199 55.5447 96.9199H44.4564C40.7377 96.9199 37.6268 94.2703 36.9113 90.7598H63.09ZM53.4008 71.0473H46.6004V50.1744H53.4008V71.0473Z" fill="#DBDBCF" stroke="#DBDBCF" stroke-width="0.00064"/>
<path d="M50.001 0C49.1504 0 48.4609 0.689453 48.4609 1.54004V10.1643C48.4609 11.0148 49.1504 11.7043 50.001 11.7043C50.8516 11.7043 51.541 11.0148 51.541 10.1643V1.54004C51.541 0.689453 50.8516 0 50.001 0Z" fill="#DBDBCF" stroke="#DBDBCF" stroke-width="0.00064"/>
<path d="M34.0864 14.0159L29.7743 6.54716C29.3491 5.81063 28.4071 5.55809 27.6706 5.98348C26.9341 6.40868 26.6817 7.35067 27.1069 8.08719L31.4188 15.5559C31.8714 16.3399 32.9358 16.563 33.6665 16.0257C34.2903 15.5671 34.4731 14.686 34.0864 14.0159Z" fill="#DBDBCF" stroke="#DBDBCF" stroke-width="0.00064"/>
<path d="M20.8962 26.0793L13.4274 21.7672C12.6907 21.3418 11.7487 21.5943 11.3237 22.3308C10.8985 23.0674 11.1509 24.0094 11.8874 24.4346L19.3562 28.7467C20.1417 29.2004 21.1741 28.8584 21.5374 28.0297C21.8483 27.3205 21.5661 26.4658 20.8962 26.0793Z" fill="#DBDBCF" stroke="#DBDBCF" stroke-width="0.00064"/>
<path d="M15.5041 43.1211H6.87988C6.0293 43.1211 5.33984 43.8105 5.33984 44.6611C5.33984 45.5117 6.0293 46.2012 6.87988 46.2012H15.5041C16.3547 46.2012 17.0441 45.5117 17.0441 44.6611C17.0441 43.8107 16.3545 43.1211 15.5041 43.1211Z" fill="#DBDBCF" stroke="#DBDBCF" stroke-width="0.00064"/>
<path d="M21.461 61.14C21.0358 60.4035 20.0938 60.1509 19.3573 60.5761L11.8885 64.8882C11.2186 65.2749 10.9364 66.1294 11.2473 66.8388C11.6106 67.6675 12.643 68.0097 13.4286 67.5558L20.8973 63.2437C21.6338 62.8185 21.8862 61.8765 21.461 61.14Z" fill="#DBDBCF" stroke="#DBDBCF" stroke-width="0.00064"/>
<path d="M88.1149 64.8881L80.6462 60.576C79.9095 60.1506 78.9677 60.4032 78.5425 61.1397C78.1173 61.8762 78.3696 62.8182 79.1062 63.2434L86.5749 67.5555C87.3604 68.0092 88.3931 67.6672 88.7562 66.8385C89.0673 66.1293 88.7851 65.2748 88.1149 64.8881Z" fill="#DBDBCF" stroke="#DBDBCF" stroke-width="0.00064"/>
<path d="M93.1213 43.1211H84.4971C83.6465 43.1211 82.957 43.8105 82.957 44.6611C82.957 45.5117 83.6465 46.2012 84.4971 46.2012H93.1213C93.9719 46.2012 94.6613 45.5117 94.6613 44.6611C94.6613 43.8107 93.9719 43.1211 93.1213 43.1211Z" fill="#DBDBCF" stroke="#DBDBCF" stroke-width="0.00064"/>
<path d="M88.6786 22.3308C88.2534 21.5942 87.3114 21.3419 86.5749 21.7671L79.1062 26.0792C78.3696 26.5044 78.1173 27.4464 78.5425 28.1829C78.8276 28.6769 79.3454 28.9532 79.8776 28.9532C80.1388 28.9532 80.4038 28.8866 80.6462 28.7466L88.1149 24.4345C88.8517 24.0091 89.104 23.0673 88.6786 22.3308Z" fill="#DBDBCF" stroke="#DBDBCF" stroke-width="0.00064"/>
<path d="M72.3313 5.98348C71.5948 5.55809 70.6528 5.81063 70.2276 6.54716L65.9155 14.0159C65.4903 14.7524 65.7427 15.6944 66.4792 16.1196C67.2067 16.5397 68.1636 16.2823 68.5829 15.5559L72.895 8.08719C73.3202 7.35067 73.0679 6.40868 72.3313 5.98348Z" fill="#DBDBCF" stroke="#DBDBCF" stroke-width="0.00064"/>
</svg>
