<svg width="100" height="100" viewBox="0 0 100 100" fill="none" xmlns="http://www.w3.org/2000/svg">
<path d="M41.6665 66.6667H20.8332V87.5M58.3332 33.3333H79.1665V12.5M19.0957 37.5142C21.4319 31.7319 25.3433 26.721 30.3855 23.051C35.4276 19.3809 41.4034 17.198 47.624 16.7521C53.8444 16.3063 60.0611 17.6142 65.5752 20.5275C71.0894 23.4409 75.6715 27.8439 78.8086 33.2338M80.9065 62.4879C78.5702 68.27 74.6586 73.2808 69.6165 76.9508C64.5744 80.6213 58.6048 82.8012 52.3844 83.2471C46.164 83.6929 39.9417 82.3854 34.4277 79.4717C28.9137 76.5583 24.3282 72.1562 21.1912 66.7662" stroke="#DBDBCF" stroke-width="5.056" stroke-linecap="round" stroke-linejoin="round"/>
</svg>
