<svg width="24" height="24" viewBox="0 0 24 24" fill="none" xmlns="http://www.w3.org/2000/svg">
<g clip-path="url(#clip0_126_384)">
<g clip-path="url(#clip1_126_384)">
<path d="M12.5007 1.30206C10.5555 1.30415 8.64432 1.81244 6.95511 2.77694C5.26589 3.74145 3.85677 5.12897 2.86628 6.80308C1.87579 8.47719 1.33803 10.3803 1.30589 12.3252C1.27374 14.2701 1.74832 16.1899 2.68294 17.8958L1.30273 23.6979L7.10482 22.3177C8.6013 23.1386 10.2656 23.6066 11.9707 23.6858C13.6757 23.7651 15.3763 23.4535 16.9424 22.7749C18.5086 22.0963 19.8989 21.0687 21.0072 19.7705C22.1154 18.4723 22.9122 16.938 23.3366 15.2848C23.7611 13.6315 23.802 11.9031 23.4563 10.2316C23.1105 8.56016 22.3873 6.98984 21.3417 5.64068C20.2962 4.29152 18.956 3.19923 17.4237 2.44728C15.8914 1.69532 14.2075 1.30361 12.5007 1.30206ZM6.90169 6.39061H9.95378C10.0919 6.39061 10.2244 6.44548 10.3221 6.54315C10.4197 6.64083 10.4746 6.77331 10.4746 6.91144C10.4575 7.60602 10.5742 8.29741 10.8184 8.9479C10.9235 9.16565 10.9466 9.414 10.8835 9.64742C10.8203 9.88083 10.6752 10.0837 10.4746 10.2187L9.4069 11.2604C9.88032 12.1849 10.4993 13.0273 11.2402 13.7552C11.9623 14.5082 12.8012 15.1396 13.7246 15.625L14.7663 14.5573C15.2871 14.0364 15.5267 14.0364 16.0371 14.2135C16.6876 14.4577 17.379 14.5744 18.0736 14.5573C18.2097 14.5636 18.3385 14.6205 18.4348 14.7169C18.5312 14.8132 18.5881 14.942 18.5944 15.0781V18.1302C18.5881 18.2663 18.5312 18.3951 18.4348 18.4914C18.3385 18.5878 18.2097 18.6447 18.0736 18.651C15.0098 18.5175 12.1057 17.2474 9.92773 15.0885C7.76543 12.9129 6.49473 10.0074 6.36523 6.94269C6.36647 6.79933 6.42292 6.66196 6.52283 6.55914C6.62274 6.45632 6.75843 6.39596 6.90169 6.39061Z" stroke="#FDDEDC" stroke-width="1.33333" stroke-linecap="round" stroke-linejoin="round"/>
</g>
</g>
<defs>
<clipPath id="clip0_126_384">
<rect width="24" height="24" fill="white"/>
</clipPath>
<clipPath id="clip1_126_384">
<rect width="25" height="25" fill="white"/>
</clipPath>
</defs>
</svg>
